<mxfile host="app.diagrams.net" modified="2022-10-10T17:42:00.317Z" agent="5.0 (Windows NT 10.0; Win64; x64) AppleWebKit/537.36 (KHTML, like Gecko) Chrome/106.0.0.0 Safari/537.36 Edg/106.0.1370.37" etag="Oi8l_qgpmBUCs3hYhvL5" version="20.4.0" type="github">
  <diagram id="vFMJvWNZEWGXN7wpi7Sf" name="Page-1">
    <mxGraphModel dx="2690" dy="1122" grid="0" gridSize="10" guides="1" tooltips="1" connect="1" arrows="1" fold="1" page="0" pageScale="1" pageWidth="850" pageHeight="1100" math="0" shadow="0">
      <root>
        <mxCell id="0" />
        <mxCell id="1" parent="0" />
        <mxCell id="00VoV6gP4ef_sgZay2wy-6" value="Sharepoint Library" style="shadow=0;dashed=0;html=1;strokeColor=none;fillColor=#EF8F21;labelPosition=center;verticalLabelPosition=bottom;verticalAlign=top;align=center;outlineConnect=0;shape=mxgraph.veeam.ms_sharepoint;" parent="1" vertex="1">
          <mxGeometry x="89" y="171.7" width="44.8" height="44.8" as="geometry" />
        </mxCell>
        <mxCell id="00VoV6gP4ef_sgZay2wy-7" value="Azure Blob storage&lt;br&gt;&amp;nbsp;for archiv" style="verticalLabelPosition=bottom;html=1;verticalAlign=top;align=center;strokeColor=none;fillColor=#00BEF2;shape=mxgraph.azure.storage_blob;" parent="1" vertex="1">
          <mxGeometry x="89" y="63" width="53" height="44" as="geometry" />
        </mxCell>
        <mxCell id="00VoV6gP4ef_sgZay2wy-8" value="" style="verticalLabelPosition=bottom;html=1;verticalAlign=top;align=center;strokeColor=none;fillColor=#00BEF2;shape=mxgraph.azure.sql_database;" parent="1" vertex="1">
          <mxGeometry x="86.5" y="271.5" width="37.5" height="50" as="geometry" />
        </mxCell>
        <mxCell id="HRoIjgGC-OPo9JwMi8IM-15" style="edgeStyle=orthogonalEdgeStyle;rounded=0;orthogonalLoop=1;jettySize=auto;html=1;exitX=0.84;exitY=0.28;exitDx=0;exitDy=0;exitPerimeter=0;" edge="1" parent="1" source="00VoV6gP4ef_sgZay2wy-16" target="HRoIjgGC-OPo9JwMi8IM-13">
          <mxGeometry relative="1" as="geometry" />
        </mxCell>
        <mxCell id="00VoV6gP4ef_sgZay2wy-16" value="" style="verticalLabelPosition=bottom;html=1;verticalAlign=top;align=center;strokeColor=none;fillColor=#00BEF2;shape=mxgraph.azure.user;" parent="1" vertex="1">
          <mxGeometry x="985" y="681" width="47.5" height="50" as="geometry" />
        </mxCell>
        <mxCell id="BUz5Cs6KhjB94nJ8huxt-16" style="edgeStyle=none;rounded=0;orthogonalLoop=1;jettySize=auto;html=1;exitX=1;exitY=0.5;exitDx=0;exitDy=0;entryX=0.213;entryY=0.64;entryDx=0;entryDy=0;entryPerimeter=0;" parent="1" source="BUz5Cs6KhjB94nJ8huxt-20" target="BUz5Cs6KhjB94nJ8huxt-15" edge="1">
          <mxGeometry relative="1" as="geometry">
            <mxPoint x="1119.85" y="272.3299999999998" as="sourcePoint" />
          </mxGeometry>
        </mxCell>
        <mxCell id="BUz5Cs6KhjB94nJ8huxt-17" value="Transaction Stats&lt;br&gt;/Audits" style="edgeLabel;html=1;align=center;verticalAlign=middle;resizable=0;points=[];" parent="BUz5Cs6KhjB94nJ8huxt-16" vertex="1" connectable="0">
          <mxGeometry x="-0.1561" y="-1" relative="1" as="geometry">
            <mxPoint x="19" y="1" as="offset" />
          </mxGeometry>
        </mxCell>
        <mxCell id="BUz5Cs6KhjB94nJ8huxt-12" style="edgeStyle=none;rounded=0;orthogonalLoop=1;jettySize=auto;html=1;entryX=0.5;entryY=0;entryDx=0;entryDy=0;" parent="1" source="BUz5Cs6KhjB94nJ8huxt-5" target="HRoIjgGC-OPo9JwMi8IM-6" edge="1">
          <mxGeometry relative="1" as="geometry">
            <mxPoint x="1170" y="270.2950000000001" as="sourcePoint" />
            <Array as="points" />
            <mxPoint x="457" y="445" as="targetPoint" />
          </mxGeometry>
        </mxCell>
        <mxCell id="BUz5Cs6KhjB94nJ8huxt-13" value="Add Transaction to UiPath &lt;br&gt;for advanced desktop automations" style="edgeLabel;html=1;align=center;verticalAlign=middle;resizable=0;points=[];" parent="BUz5Cs6KhjB94nJ8huxt-12" vertex="1" connectable="0">
          <mxGeometry x="-0.0893" y="1" relative="1" as="geometry">
            <mxPoint x="5" y="1" as="offset" />
          </mxGeometry>
        </mxCell>
        <mxCell id="BUz5Cs6KhjB94nJ8huxt-5" value="Digital Workflows" style="shape=image;verticalLabelPosition=bottom;labelBackgroundColor=default;verticalAlign=top;aspect=fixed;imageAspect=0;image=data:image/jpeg,/9j/4AAQSkZJRgABAQAAAQABAAD/2wCEAAoHCBYUFBQWEhISGBgaGhgWHBkYHRISGhgZGCEZGRofHhgcITwnHB4rIxocJjgpKz0xNTU2GiQ7QDs0Py40NTEBDAwMEA8QHxISHzQrJSs/NTQ2PzQ0NjY2NjE2NjE0MTQ2MTQ/NDY0MT80NDQ0NjQ0NDQ9NjE0NTQxNDQ9PTE0NP/AABEIAMsA+AMBIgACEQEDEQH/xAAcAAEAAgMBAQEAAAAAAAAAAAAAAQYCBQcDBAj/xABBEAACAQMCAwQEDAQFBQEAAAABAgADBBEFEgYhMRNBUWEicZGSBxQWFzJCU1SBocHRFVKx4TRicnSiNUNz8PEj/8QAGgEBAAIDAQAAAAAAAAAAAAAAAAIFAQMEBv/EACgRAQACAgAFBAICAwAAAAAAAAABAgMRBBIxUaEUIUFhFYEFcRMi8f/aAAwDAQACEQMRAD8A7NERAREQEREBERAREQEREBERAREQEREBERAREQEREBERAREQEREBERAREQEREBERAiVHXeOaNtUNIK9R15NtwAp8CT1PqltnB+JrJ6N1WFQHJdnBP1lYkgg9/WdvAYKZrzF3PxGS1KxNV4+c6n92qe8kfOdT+7VPeScyiW/43B28y4vVZO/h035zqf3ap7yR851P7tU95JzGTmPx3D9vMnqcnd035zqf3ap7yR851P7tU95JzHMjMfjuH7eZZ9Tk7un/ADn0/u1X3kj5z6f3ar7yTmGZGZj8dg7eZPU5O7p/zn0/u1X3kj50Kf3ar7yTl+ZizTE/x+Dt5ln1GTu6ifhRp/davtSWHQeKadyQpRqbHmFYg7h5Ed/lOQ6TYbsO45fVHj5nym9RyCCCQRzBHIgzVk/j8UxqvtP9o+svW3d2OJXeGdeFcbHIFRR6twHePPxEsMpcmO2O01t1WVLxeu4ZRESCZERAREQEREBERAREQEREBERAiaHijh5LyltbCuuSj+B8D4qe8TfRJUvalotWdTDFqxaNS/PF9aPRqNTqqVdTgg/1HiD1Bnz5nZuM+GFvKe5MLWUei3cw/lbyPce4zjVekyMyOpVlJVlPIgjqJ6TheKjPX7jrCqzYZx2+mOYzMcxmde2rScyMyMyMzGzTLMjMxzIJiZZ0ktPv0uw3nc49Af8AI/tPHTrI1WychB1Pj5CWRFAAAAAHICa5naNra9oZxMcxmGp60azIysrFWU5BHcZ0jh7WluU54Dr9Jf1HkZzLM97K7ak6ujYZT7fEHxBnJxXDRmr9x0b8GecVvr5dgiazRdVW5phl5EcmXvBmznn7VmszW3WFxW0WjcJiImEiIiAiIgIiICIiAiIgIiICIiBEpXHfCYuVNago7dRzHTtFHd/qHd7JdYk8WW2K0Wr1RvSLRqX5sYEEgggjkQeRBHlMczqHwg8I7w1zbL6YGaiD64HVgP5h3+PrnLcz0vD8RGam4/f0rL45pbUssyMyMyCZu2hpJM97G1NVsDko+kfD+88ra3aowVfxPcBLPbUFRQqjl+ZPiZHe0bW5f7elKmFUKowBM5ETLQmJEQJkZifdptlvO5voj/kf2kbWisblmI2+7h3fSYVQSB02/wAw8/KdEtLkVFDL+I7wfAylCfXYXrUmyOYP0h4j95UcVj/y/wC0dXZw+b/HOp6LlE8reuHAZTkGesq5jXtKzid+8JiIhkiIgIiICIiAiIgIiICIiAiIgYzlfwhcIbC11br6J51FH1T3uB/L4ju6zqswZQQQRkHlz5zdgzWw35q/tDJSL11L80kyaNNnYKoyT+XmZc+PODWt37W2Umi7YKj/ALbHu/0Hu8OnhNdp9mKS+LHqf0HlPQ4stctYtXorMkTj9p6vSytFprtHXvPiZ9EiJu05ZmZ90xIiZYTEifRZ2xqNgch3nw/vMTMRG5HpY2hduf0R1P6CWBFAAAGAJhSphAFUYAmeZxXtNpbIjTLMZmOYzIMthpeomk3Pmp6jw8xLXTqBgCDkHoRKJmbbQr8qwQ81Y8vI/tOLicG4569XZw+bU8s9FqiRJlesCIiAiIgIiICIiAiIgIiICIiBEwdwASSAB1zywJkZz/i7iLtCaNFvRHJiPrHwHl/WbsGC2a/LX9tWbLGOu5fNxTxAa7bKZxSU++fE+XhK7mRE9JixVxUiteimyXte3NKcxmRE2IJzGZEzpUyzBVHMwM7egXYKv4nwEsNvRCKFX/6ZhaWwRcDr3nxM98zkyX5p1HROI0yiY5jM1MsomOYzAym40GwLN2jclU8v8x/YT5dJ041mychR1Pj5CW6mgUAAYA5ACcPE59RyV6u3hsO55rdHpJiJXrAiIgIiICIiAiIgIiICIiBERKlxbxF2QNKk3/6Ec2H1Af1P5SeLFbLaK1QyZK0jcvm4v4jxmhRPPo7Du/yg+PjKPIJ8YnpcGCuGmo/6psuWcltynMZkRN7UnMZkQBnpAzRSxAAyTN9Y2gRfFj1P6eqeen2ewZb6R/Lyn3TlyX5vaOiUQmJETSkmJEQE+3TbBqrYHJR1Pl+88rG0aqwVfxPcB4y52dqtJQqjkPaT4mcnE5+SOWOrpwYOedz0elCiEUKowBPWJMq5na0iNEREBERAREQEREBERAREQIiRmabiLW1taeeRduSr4+Z8hJUpa9orWPeUb2isbl8/FOvi2XYhBqsOQ67R4n9BOZ1KhYlmJJJySeZJMyubhqjM7sWZjkk/+9J5T0fC8NXBX7+ZU+fNOS2/j4IiJ1NBERATc6bZbfTcel3Dw/vPLTLLozj/AEj9Ztszny5PiGYhOYzIzGZpSTmMyMxmAzPe1oNUYKoyT+XmfKeVGmWYKoJJOAJc9J04UV8WPU/oPKc3EZ4xx9t+DDOS309tOsVpKFHrJ7yZ9kRKiZmZ3K2rWKxqExETDJERAREQEREBERAREQEREDGcd125apcVmcnIdlAPcqkgAfhOxyuaxwnRuHL5ZGPUrjDeZB752cFnphvM3+XNxOK2SuquXxOgfIGn9vU9ix8gaf29T2LLb8jg7+JcPo8vby5/E6B8gaf29T2LHyBp/b1PYsfkcHfxJ6TL28ufzYabZ7vSYej3Dx/tLivAVIEZrVD5YXnNiOFkHSo3sWa7/wAjh1qs+COEy9vKrxmWn5MJ9o3sEfJhPtG9gmj1mLv4Z9Jl7eVWzGZafkwn2jewR8mF+0b2CPWYu/g9Ll7eVWzMkUkgAZJ5ADvlm+TC/aN7BPs0/RadI7hlm7iccvUJG3GY4j295Srwl5n39mOiaWKQ3Nzcjn5DwE28RKy9pvbcrGlIpGoTERIpkREBERAREQEREBERAREQEREBERAREQEREBERAREQEREBERAREQEREBERAREQEREBERAREQNLxBxNbWIQ3VXZvyF9F2zjGfojzE+bRuNLG7cU7e6RnOcKd1NjjmcBgM8ufLwmi49IGo6NuxjtnznGOi+M1/wpNQd7FLfs2vPjFMps2l1XOSW28wucHn4Z7oHUIlN1/iO4+NrY6dSpNX2CpUqVS/Z0lPTIXmWP6jrPmocSXlpd0LbU0tmW4JSlXt+0VQ4xhXV+8kgcvEdeeAvcSq6NxBVfUL2zrrTXsglSiVDKXpt1LZY5IJUZGO+a7Q+NXr6rc2RRBSQOKbgNuZ6RUVASTg9W6Yxt84F7iVS04iqVNSubYCmLe2oqzsQ27tHwwGc42hc93dNZp+ualfo1xYJZ07fLLS+MCqz1thKljtICKSCPHkYF+iU3S+Lmr6feXHZBK9stwtSmSWUVaKlsZ6lTgfmO6a/hbiHUr9aFdKFrTt8otQv2geoelRqQBICjmBu64gdCmp1/XqFlSFW6qbELBAcMxLEEgAAZPIE/hNtOe8Q2y6jq1K0cbqNtRetVHIg1Ko2Ip8wDuH4wL1aXKVaaVKbBkdVdWHQqwyD7DPolE+Cu7YW9azqnNSzqvROeWUySpx4dQPICbLR+IKlbUr+0daYp260ShAYMTUVWbcScHmeWAIFpnj267tm5d2M7cjdjxx1xK5W1+qurJZBafZNbGuTht+8My4znG3Cju/GUhP4p/G62z+G/GPiw+l8Z7Lst3o9PS39M90DsESncRcSV6DWtrQpUqt7XXOMuKKbR6bn62zOcDkcA/jr7ziLUNPei2pJaVLeo60zUt+1U0mbOCwfqv7HyBDoMSk8ZcU17S6sqNvQSt24q+hzDllC7MPnCrk5YkHkDNZf8WajYVqS39tbVUr7lpi1NQMtTHooS/XJIGfWe7EDpMTnd1xLqVnWtm1CjadhcVFo4omqXos59HczcmwOuOuD05Zs/EFa+yiWFK3OdxerXZwiYxgBE9Jicny5QN7PHtl3bNy7sbtuRux0zjrjzlO0vX7ylfJZaits3a02qUqtDtFB2fSVlfv5H8uueVXuP4n/HW2fw7t/ip27vjPZdhvO3dj0u0z4coHX4lQ1ziG4oC0tqdOjUvrhegNQUEKLmo5P0tgPQdSJ8lTX76zuLdNRW1ejcOKS1aAqIadU5wGVycg+Xn6oF6iIgIiICIiBzj4SLJK97pFKqgZHqurKcgEYXlylr0jhaztGL21rSR8Y3AbmweoDNkgeqbK4sqbsj1KaM1MkozKrMhPIlSeh9U+qBzWneJZa9dNdMES7pUjSd/RTcgRCpY8gcqfy8RI4zvad9eaba2rrVenXW4qMhDrTSngncy8gT+3iJftR0yjcLsuKNOovXa6q4B8RkcjMNM0e3tgRbUKVIHrsVUz6yBzgUjj65Fhf2WoY9ArUtquBkkFS1P88+7NC1q1lZaTqLhi6Vmq1zjmUvMsxI90fjOs6hp1K4XZXpU6i5B2uquuR0OD3ybmwpVKZpVKSPTIC7GVWXAxgbTywMD2QKPwNYNXsb24Oe0vnuHBPUIdyUx6hzI9cr/AWmWdS1VLi8uaFxSZ0q0vjNS3CkO2MJuAAIx078zrlvbrTRUpoqqoCqqgKqgdAAOgmu1Dhuzrtvr2dvUb+ZkRmPrOMn8YFYSws6Wl6qbCqaqtSue0cua2agpEnLHqcEH8Ztvg2/6XZf+P8AVpvaOn0lpmklKmtMgqUVVVCpGCCoGCCOs9bS2SkipTRURRhVUBVUeAA6QJua600d3OFVWdj4BRk/kJyrg3R766Wvf0b4WxuqjNtNFKzFELKnpMeQAyAB3ATqlxQWojI6KyMCrKwDBlPIgg9QRFtbpTRUpoqqoCqqgKqgdAAOggcwsbavpms0murgVlvkam1QItEdom3ZlQcZ5KM/5zPt0+/p2uvagLh1pivSoNTZyFVtiIrAE8s5De6Zfb3T6VbYa1Km+xg671V9rDoy56Hznlqei29zt+MW9Grt6b1VyPUSOUCg2Wr0rriFHoHei2j094HouyuxYo31lG7GR3gz6a99Tt+IXau601ezUKzkIpIbpk9/I+yXihpdBGV6dCkrIppqVVVKITkqpA5LnngTz1PRbe52/GbejV29N6q5XPXBI5QKPxDfU7bWbK9qsPi9W2agKvVFbLuCW6AEOPz8DHwnapSu7elZWtRK1evVp7Vpsr7VU7i7EfRHL+vgZfq+n0qlPsqlKm1PAGxlVkwOQG0jHKfNpmgWtsS1tbUKbHkWREViPDcBnECp8TJt1jRB4Lcj2UwJ6fCN/iNH/wB4v6S5VrGmzpUenTZ03bHZVLJuGG2sea5HXEm5sqdQo1SmjlG3oWVWKN/MpPQ+YgU34Wf8Paf7uh/Uzy411OodQtLNrqpa29SmztVRhSd2BYBBUP0Oi8x/PLveWVOsFFWnTcKwcB1VwGXoRnoR4zz1LSqNwoW4o06qg5AdVcA+Iz0MDmFvSt01yxS2uq1xtSsHapVa5CsVJCqx5A45kDxE3F/dpQ4hR6zqivYlFZyEUsHLYyeWcCXK10S3pdmaVtQQ092wqiKU34DYIHLOBnxxMtT0a3uQoubelV2/R7RVfbnrjI5QOd8eJRbUNOua1WotpUptT7ek7UwrNl0PaL0VgR+APhNk3D+l9pQ331So/aI1JGuWrZqA5XC5Mu76dSNIUTRptSACimVUoAvIAKRjAnx2HDVnQbfRs7ZHHRlRAw9TYyPwgbiIiAiIgIiICIiAiIgIiICIiAiIgIiICIiAiIgIiICIiAiIgIiICIiAiIgIiIH/2Q==;" parent="1" vertex="1">
          <mxGeometry x="396" y="127" width="126.6" height="103.63" as="geometry" />
        </mxCell>
        <mxCell id="BUz5Cs6KhjB94nJ8huxt-15" value="" style="verticalLabelPosition=bottom;html=1;verticalAlign=top;align=center;strokeColor=none;fillColor=#00BEF2;shape=mxgraph.azure.sql_database;" parent="1" vertex="1">
          <mxGeometry x="1100" y="468" width="37.5" height="50" as="geometry" />
        </mxCell>
        <mxCell id="BUz5Cs6KhjB94nJ8huxt-19" value="Time Triggers" style="shape=image;verticalLabelPosition=bottom;labelBackgroundColor=default;verticalAlign=top;aspect=fixed;imageAspect=0;image=data:image/png,iVBORw0KGgoAAAANSUhEUgAAAOUAAADcCAMAAAC4YpZBAAABVlBMVEX///9be5T///1aeZP7/////v3V3+dwip5ZfJhmg5zK0tb29/dviZtaepdceJFafZyLobXb5ui4xMzd5ev///r//P9wnME/e6tQiLP///b3///7//wAjs5zn8H/+v8AktGlwtozdqsAldhqlLpHgK+0yN0AktoAlc0Al9gAk8kAkNRCe63D0uPt9Phfe5BQdY+Ko7H3//QAm+EBjNTS5fV8l62Mqsc9dZ+YtMujuMpFfrAzcKBkj7K5ztiYqbjx+P1rf5KtwMxyiaR+kp9Vc5XW2N9JcZD/8//g8Pmm2O9Vu+Ryye4qquCLyOjM7f+32+xwud/Z9PAqo+AAmOmRz+1qrd85qdBnu9IAmcaz4vowseqd0vHD5uyW1PRRt9is4uqHwOkAiLxivvib1eNOqde+6/91tM4AiuAxrdO0zOozca9gjb8QcbYAYZxfnMeXuNfi6uCHstgzX7c1AAAY5ElEQVR4nO1d/V/bxv0/H3eOiQIk8R2yJNvyg2z5SVCw60eISrt2JgFM3LRLGtqlDVvX5Luy/v+/fN8fGWiSdaR0ebV2pndWhu2TuPd9ns+nO8ZixIgRI0aMGDFixIgR470EZ5xzKek3zt/WFs0k54KL36Nn7w6Cq1AIJRytDeVYV7aV2tK2NrhjKMF0NDALAiFEZXf35u7NgIHr1bLkzEqi7c2bSZLlApFkUoTLy8u3bty6yZiyr+45dPverRs3bt0YGGKROIKZDFOp1Gpq6S4xvrot1+z2UmollboHlgtFU3FjKbG0sfanuxDVWyTE8+z2ytpK6rN7YsFYchYuLW2urqxAlpqpq9tKdju1ubScuEdC179PB98NRJiALFdWbzL9VpYMLBOrGxv3jN+pc9dHFA0NZVnKCJLpn9H6aDWRSmwMOum3Y/zJ6tLKysYHr7UNpFJsXjSYIjo6I9J7927cunVreYaPPlrehD9JJJZv3Lix/BZ8dGMJGovWr7a99clgN2ByTsQLkuiJSHYhOnQUnSUk4DOXEolNqG1ibW3t/N1fRiL6sbpK/7eyBjdEgFWvpe4FfzS7C8CFIlakP9hMLBE2EjMsrUbY2MDbmysX7/4SNlYTs7ZwyqmlldTF+6nU2uYgvNqkfzdwIRgP9zYw+pBb4lw+9CK1Ql3GbzMx/UegRQJmuYb2+G1jJnf8vrq0tpmcG5Y248E9dBMKSl2OMFPEtVREG/29AqTcqQRUldpjSC7eX91YXVvbmxfvI2wt0x9CCBsbq0T1XN1WP16+gf8tQ5ikjFcgtZKAt/kY/8iUL5QbwgT5T8I/mt8MkuwyeYN6t/oznc3UUhL49M499PdPf7qKJEZk824ynUzeuUvcLtqukNKv3Job/wMHBJavY2ljgxJY7uxtkt+8kuXSxuYdFJe2uEnmuXL5NoZtbXmuWSY2PuIShZTc29z8WQv/A2YsBfsU8tu4bLsALOF3UP3bhtxLbSY2r2aZWvosaRjI6T+FIS4cS5RfSkFj11ZWr2S5svJZGkOi+KcUMC/bLgDLpcSGEIbh2JFdriSuAuwSsjQM2CUF2QViubqR2hsMBnt7H5KvfAtW1+5Fje+tJV6R+ryypH5ddDG1FmUFqytX+1cChL20BEeMXOeVAaHYuboybywjisjlVs5xmcDh15Wr8Wq6h0hCOT+xXEptzB3LSIJLiatyuV+HC+5I/eaPJXQ19XMe+y5YRrKckwyPXbKkDH1z7b/GZdk5jywhysSH9z64/V/jgxluJObRLjH4y63QeGe4i2ps7ljSDMhG5y2zdb8S0WTlXLKEc02tJtnFNLrOS/7nLZbPMyY0y0dfB+nrTLXKu4klpIbLczK7xX6RpeMIBy+cLcty8DLvOFJa1tu+4XsFC8GS520qphz6XtJmXOfzgr7O/PX3XAiWpKhcOfZ4PHa2BFc2Civx3mms2AIt6ezfv/9gvKVRglmSCecaXzUvBEuH50VeBA9K1YMjR1tMKe5I9d5p7PM800542GgcdJz8lnU04Za4zqqB+WYpIDah2OTgmFsyOHSrBx1Lq4cHpx1Y6TXuOd8sHVB07P1p6fNj+9FBLdvwT7+YBF+23ftH15pAnm+WNA1tGc+qtc/9qevW3Kxb/Xx6Wm27px39/mgskh7BrfFfslU/+70PitXst6XGY//LJ0pd58vI+WZpObBLW7HDUvZxvXZ//68Pvqr5nzf8J0zbzvuT+9haCK2NU/9xdTohBd56tO1X/UeKa+saufx8s8wL7XDNntYa/nSC6iKfV/Kw5pa+M7autQBkvlmCybhzdHJcyjYOmaMdqbVkB36p9KhzdBTMluTRyhjOkQkhsaULBGf/5pjmm6WFMFKbHtRLVf+IS0EsFXuQrdX86fTgBPmPQBJkwUuhatFOXjiKS2cLjMXr6jzfLB1hP203so166QCWqDSKSslOsr5bcrN+R+S1UFKDFDRba9hwJEbb0cxeJJYqYll16+7jAAwjUuqR72dL2VJp4mhaZSlsoSUKUPgpclS0NjHPndcrlvlmidq58/XTp6euX9tn0E9ED2Wdtqvu8eTp0zFXlqKIAuvkSmEMuIbnlZzljTdS+TlnCbdiO+rv1br7TSgsy0Zx+Ve/VDt96NAqO/I1luVMjr84DSA8cObO/vHh2LL0IslSwXGiv/kvat9vH9osjxedg6pbfcZho+RxtBL7X04bjcb+FmNbXPC/fVWq1U7HbJFYar3laFSSD3yksPefnJwcPT/1s/70xGLIipjFbKtTcxt+tj3d0mKLO+GzdrXhlurPF0ljlWNJx9KTKRxOO+tn4Vlrrvt4G8KSHD4nr/98lP3W9/2S37FEXllHU9cvtd3t715P/+abJXyLwfmTAx/upwoyNSq+trcbNdQk3NnCMNjjaqn0+HEj+4/j+9/dv3+add1G3d9+sEgskQcIJ3wwzfpfPb0PrjXXnx4ixWt/NYFZgqjNwmfZbN2vNrJurVGCgbq+29h+/HCRWCLWC6XGx/AnMtw/zVa3DzuSPZ9On4bCiUpszU+o6my4bUgRvxFJP3vMFykrkDTBzFjnsKO3eHiYrR2MKTA+n+ThfB1DCy3Gz2qQoF8vlRqg6TbcbNuvf/1GJj/fLBEuEDIEEh5mcPtRtvTVCdjZkkmakM3nbcg5C3Y+2Sz8TslttLN1t/HVfhRJLrnOOUthSKhsZIIseIQUfYy8dQve1T7Zn3S49fCUTBEirGanBwdTGC5QbZT8CT0gJGfWKeecJUTGqOwQxFKPJ5OTgDG9hayuc7p9cHr41/slcjel6sGzZ/udo8mjBwe1Ellp9fSEjZ8/OjxRSgrIfG+eWb7+ibBtMZuG1cGzbeio/zhbg8OpTR8chaGNFNcOO8/8KsRZd+8fflGrbT9AKq9QoiwQyxlAVKjxwbabbTTart+olqb7trY40waGQIaTg5pfR9BBhK1WGxMB8s58a+zrn6CGpgqTaW7tQ5LVBjkdiHIfVYhAUk/NUZuNT/0S2Pv1ulutfs0l7qgXiSV9m0flMgu+qdWQ7bkusrnpI8uBvJRNj+jBUwl+Uit967dhsH49mx1btnbYArHkVEqCJRf284Nqmyj6jcbpWIGHZeWpyibD1eqwXWogilK2t32khNoSi2SXoEkh0GYymDw4rTWq/uOa/4g5SPSQC0YJRD6vUUHXqrUGkqBqdXp/LJly9CKxRNnMAQEr5OHRsd9w643TEGFVcU7lJn03T9W0eLqdRc7eODh+GkaZwSLZ5QVktP6VPaqjUsmevvGhgpGqo2oWud7x0cX3YovkYy+BHEFoeUjpQP1NljShqU5gk43GvryYMlhEloiKXHDrELlcu378RmIOy7XVw1rJd7Ngef7hIrLUcDXMdg5rjWzbvf/GhxIf8TvQV7++zy6+/ltEllFclOzQhcBKb2ospfhijGBaau9fLn1aRJZblOOFzynFcd1/Y8mkI/5WyqIgm7BFtkttWQ9RfPgUEd0v31xfAEGzv3+OD7P+80X2sVt/Hn/XztJEiPu4VD1meZ7Pc71lSWQ/2nLyjv2t/307+2292viLbaFW0YuU4V3A2Qru1+qoOvxStl4/HVv07YFDE35bWw5eqO/aVbeOAXCz1UPBhTYWkWU+Hzwo1euNrF/9vF2aHj+0tNwSho1yOU9zuPtwvpTEVrN+7TSPbF2zRcrwLloI68nUBUnEC5q2Ox4rhAxF39FyKcOnB65PiXq7lK3VvmYRywWUJXLV8WnNLbnTaQ1VSbv24ERKYcEouTTGT7erfrWUdf02PNC0o4j/IrK081o89bPTw8nXNdRfjWrptDChJSOSdfZBv12v1vxvpu1GtXFoWLa0FpKlw7QTTCaTUDnP2iXS21Lt4PDw2bNnh4ihJZQq/vbxeHL4uDHtaAcsxSJGEunQEgmailThoY8KixLaajQ7UKe553Y1exwwFnY6Y0GrK/hCxstLSETDSak980F+g74Ya5R8v5r95o1l+AvMUoq8bYXjqV93q+SLIviQp/uV/cb+OAvMUttbcERP/La7DVl+X/u2WoVjLYGlz61F+i76yoY0nywd+paapn/8z/1a3W/TKpmGf6Sd15ouMEvmOA7rfF9F2HDdw/Dhw/H4yffIBkpu+x/svWGp8sgEHiGNKyGlHXOlOBsfVNsN360esEVaV3BlQ0uDpvGXxwgh9eMwmuMR+24V2d3BF2+sKl1kllLblrafH04P/tFBxSW10JMDd3rwxdOx897IUmspHJ1n4WRyEtJckNAi3H/w9ZMxo42ZXsUis5RK5oVhKcehqWgu7VDLcBxKbgj53rDkW1sK9SSt+5G0JJoz1FgK8qXniF6fJ1lklspBOWloO1ptyRmtrMzTXEEeqvzesKRZnmgXUsemp/loXSkTjjI0+MtFyX0S6bdlBaBEZKTWluUgcbdhp0pFD4DxNzYmvZtYIZZz8iytIUIpkx9/trGxutFK33lnGKwtbaTWEnPyjLukpQHJD1NLqc3U8q13h+XE6urS2q150VjaQy24F+08ceVWadcEbX2UStybk93FGH2dE+5tzLZ+WU79wnYo18P5HZZWl1ZSG8k/mtslJJci+UlqaZM2OXnLxii/Apd7q0A1bgfzstMzrSoTxs0PZ1vf/feI7gGKiY3l22912r8bJKdnQsTNe7c/ftu2m9fCjdsDFGfzYpdy9viWDNKf3nyXSAaBeOse5n8A5LuEMS8x5H8UEIF4V5hDXf1fwzuT5R9N5CrELuM3YV7iZYwYMWLEiBEjRowYMWLEiBEjRowYMWLEiBEjRowYMWLEiBHjfxT9brfPaAsQJi1F2y5FC44Eq+D9Fu0nTuvq8Z+w6WkJ2pRIJAt0Uf+HMY+epYgOBw+FkErajmKtbrfboq1kFT6mjbfONw7huA+nBTDC5hrXjM+63UIoGKeH3BzFZ/vucx4UcHMxW+kumWWhVzrafpeWzoQM/eHXX0VTLhYztDc6l1qCpTC45LT12Vmx6VXoHE9m4H3hROSl4MzqZzzTHJqeV24xRTt0c2nYitPDP7iSdYvFYSHa00iE0qAH+fX5IiFafId7cJteqmTZHK0H9KQ/WKA1DQHuwdPrppmhccatRbSjDu04Y9GDcVzanPaN/A0scU96TlnSUy4EA6OLO541m5kKyZd23FaQFQSATir7J9Ps9cwm/g29XaXlTP7UAl3Ehd1m0yvw2cJEnQd15eBtTsxopS2GxFESEupkRsQSb1BD6gB3SJ4XLGmjdkWHSmmWn40SbTCnSA9+I0vHoAGHvDidS4GeQZYmREJ7ownJbNqSWpCaCdZ6MRwWi6MXRci692EorUgEmn7MToDqe2avQD0RpIsatzw/TUhEQsBPRtuqOclys7luCCVo6zGmaaGxIuM4Z0lHKmCAdT6vmbIsugSXW6Qz8vrLviKWIEK7v0tuaHpSS5IsIaoKNwSzaASgL5FAGMuNzOF6S7Cg3xsWh3tK04Z/0CRJqk79BUu6MNJBprgt6AgMIUEhGisaEkPgxsmdYhEsYWqGLcBH2KHWhiPOWTrCth3HsW06TIu0XUumbDqO+TezZCTFZNcrvihmCmPSLNY3obHJndHIzN3ReYfTLkUK2pMxzR14JfxeePmyPBFELd3NQLyZXIsePuzjhoVkGbfaadkWxkiK3Z1RsdgbhAY0hcvwzEPjQnInkqXe+7/iqEA37I9evChcaizMOfmTVyyauQ5t385/KI7+2fqwWPQqQl7nUIlXWGJwwkGv1xsVh8VRuUW23++Zwx97xWbTLPZamp4XhTuE9q73ht5Oi1Ypz550ciyjVW6+MOGRzEzF5qw/gl8a4sLmqNmB9xJBF7cd0sctuGqW3jExAkXz5cseZMnEYNQjN6fZWc/M7F2yVPbumtlswjB6/RC0Kp5XLJu90douuvEruUUnb0ly1TNZKlFANzPlbrlnFneSxHLUNL3Merc8bBZ749myWKiy9QOcK1rmWsk7DrpmO6y1Uxyu5bplbwgepARes5fJdXfQR7KFoN8ceuVuDleVEXvC20Wv+LIL6TdNEyxZodgcws2BJfxZ5WeWSbTI3Ka/DzO3eMvDUHkIMmP2qzXWsSK5E8um+RJigor1Mrtp1ilAS7rwEH30whsEPJ3L9HpduHh6RogMLweDhf8pZtYrSeirZYBWsW+wdN/LlHcNXDgcZvYMAQk3RwFjdzLFUT/NgorX9M4Qh72mmbkZikq555m5gFjCjikM9sk5X7CUNiLSTsuwk2XPLAeKtzLQqr3rHHHHokMKFAWvGUtuDECqYmiLBd1eL5NkxLLXDWizE4g3E8k98vkq3YVUoMgIJ5mK5hJxzyyHcDbBbisJ2UB0zW6IMen2vGKLiQoMPK1Aozwy19Nk76Nd2hCnAh1+laU8G77KMoDk9qifhaHnVSRr0ejY1yOZZ7Rn8YxlD1nBnXWoR6A0/rXMXrECjS3CidDzorDEppdGRKS4TOIMWl24IERNr0ka2kKS0JeRmMlrEQ2vALnLgWeOWizI4Ubdwdmg/xK9Txpd0+vBHUto5Oss2essW7gsN+j3BznYeJ+RDng5663EXsN5BEMMLMP6mLgD9SojnoFWEoZ4ZpD3IZbwNxTmdykmgwNCN3x+kG6dlT0ETOpma2gWC8oWs0NnNNklWNq27MOTVViwXjRN+JCRCXt92UpDATOCHrAgHXiNZT9iKc9ZnpH9j5rFFzBf84yrijccnV2X5W55fb1FyVfZgyxFumw2y4GAErPkkAyT/TRjyZCyDc1ei44lodMr6FlM2sk3HI/Pil7vZYftms1i36aAr6Nhi1hypGLIEYklTMIcIZKMRkglKmPiAPXn/C0sC/DlGB3CqLjO1a7nNc+uGUHE3Z5pFkhzI41FKG42fwy0yjssiZsXHNY1e5ThIbKDZSYJghZtNl5ZK5crjPTTsnKm+bLCdj3I3ibpILbjZx/2U6B9SJEeEMsctCRpBEYwDgzD+lcO+h9tVPqmxkp4n+ErLM0inF8Q/MvAD3ifXajMdVlq/U/ThMTYzUyzV2YK1tM0jbxgTr4Ce2tZ4NaDOUhbhJH3YXmkMHS8HsSSG8+OO8ogVLRY60dvlNPnz69LYjnC8CDV7vc82CUMsflyzPLQeIu29UHmOBpT013vVZYy8rHNn1kmTQqjcAWWspWlWQURt+BcxenfYQmwM8+MdK7nvcgho2s1iyblW3IM0ezA2ZwVhwgtYLOHwb9NY23Z9Ex38zM4HUSGf1VeIrSWx2qM0FJMozvJncxPHUOR26ogsYPqDkc3uWw1h70z2jJWS8sh+/KKOfQ+6MLe1hFAWyOK+xRxoD17lpWGimcUC+BTy59i2HVkCs5dzxsVrnOKKGCLn4pepPfIranASufAar1l9DPmcPgDfA466zV3dsdnQ3PYQ0rHyMFCZD+g5jIjYyl6zeYAmdguutesBK0d+AqECgT3TAU5Lx+Az67D0mXcqZs2fjLLP3XgQnNDc9RNd36k7CgXWjJElpAppJFbRNJD5YVhMpgB0fag6rsZL1eBU45keU2WQo53mr0eFYrFLpUUcHkopshHmF4hQKVBLDNEp1n0urTlGRyL1ErZ/R7eM4eImF5zPUDpAKkgMS2OcHmmI+XZyMz8QLUxZPkCaT0iHWIr7mwWzYGBVI3CEDI8DLK3HqBczKGIIy+MXGdYoPhbHMI/UQjqUS7YM0flDmohJIn9az7mAY+5uz4kki/7gbQpSCQRBdEVr1wx6NSxs+LI669H6ecgIJ84OxMI+eWgjD+IhpmdQppO9rSC/o4XdTPXCmF4UV4qSWPN4i60LazkMggqvUx5LyDDqpQpWct0c8XR+hgeLZ1DLoWLz4ajZoEqL+RVcOnqTjdD2bqX6XbQH5jUqHDNh6YQ36xxZTAYVFDvY7xR2MughTf6lbSgrTFUq98v3BnvoUkLHOE8aSqAC42MNlkp9BGuK0kUaZTcCju51x8MCq2Aav1Wf9Dv0FzITTRKKgMeJ105w+d7SRYlUDy5N+gXWmP8hUrAEWfTuN+gMk7jnkklggra0sbXPGzh7xQKLSgAkvxBf9C6pvcRIZ0KHEEjgLPoUEdFgYNiQDQzwaIpAErN8EJHMxdwWoxbs5keyiui8liS56TWiipIynfJguVs2xBFRfbsD6GGpdkG5ViUFGNso73UZPRUW1Te0J9F0UIVKOOz8mp20G1Ut1Jxe905AghHbEWnAqN2pDvTJIuKDsWjHbeRxlClj5pS0OEyqF3RHW3Dq1NNHPVVRjkAj66hCtuh6QzBbLJdRgUzftApVxRkaZsfTbuSC0r5VVQUU/5DeSEpCVXgURWPelrR2EUTFzRq+BPRwEs64IVd0/lEgxeJKzr2T1zeQLCZPKMRxJszicrZIApS7EhpLs7fmM3fsZkmissbsGjz5qhRJJjzptF+eSyaJqIWkZnzWWXEowMISUP4+SNRnEZhdjt5fvW1WcaIESNGjBgxYsSIESNGjBgxYsSIESNGjBgxYsSIESNGjBgxYrD/B4gDh4YXc9SWAAAAAElFTkSuQmCC;" parent="1" vertex="1">
          <mxGeometry x="76.66999999999999" y="686" width="67.66" height="65" as="geometry" />
        </mxCell>
        <mxCell id="BUz5Cs6KhjB94nJ8huxt-32" style="edgeStyle=none;rounded=0;orthogonalLoop=1;jettySize=auto;html=1;exitX=0.75;exitY=0;exitDx=0;exitDy=0;entryX=0.5;entryY=1;entryDx=0;entryDy=0;dashed=1;" parent="1" source="BUz5Cs6KhjB94nJ8huxt-20" edge="1" target="BUz5Cs6KhjB94nJ8huxt-31">
          <mxGeometry relative="1" as="geometry">
            <mxPoint x="694" y="234" as="targetPoint" />
          </mxGeometry>
        </mxCell>
        <mxCell id="BUz5Cs6KhjB94nJ8huxt-33" value="Credentials/Secrets" style="edgeLabel;html=1;align=center;verticalAlign=middle;resizable=0;points=[];" parent="BUz5Cs6KhjB94nJ8huxt-32" vertex="1" connectable="0">
          <mxGeometry x="0.1939" y="1" relative="1" as="geometry">
            <mxPoint as="offset" />
          </mxGeometry>
        </mxCell>
        <mxCell id="HRoIjgGC-OPo9JwMi8IM-14" value="Human review Task" style="edgeStyle=orthogonalEdgeStyle;rounded=0;orthogonalLoop=1;jettySize=auto;html=1;exitX=0.5;exitY=1;exitDx=0;exitDy=0;" edge="1" parent="1" source="BUz5Cs6KhjB94nJ8huxt-20" target="HRoIjgGC-OPo9JwMi8IM-13">
          <mxGeometry relative="1" as="geometry" />
        </mxCell>
        <mxCell id="BUz5Cs6KhjB94nJ8huxt-20" value="" style="shape=image;verticalLabelPosition=bottom;labelBackgroundColor=default;verticalAlign=top;aspect=fixed;imageAspect=0;image=https://uipath.com/cdn-cgi/image/width=575,format=auto/https:////images.ctfassets.net/5965pury2lcm/2aHZIPRcbAfna93aPHhqVb/fce57757bef0275626d814fb8bc0fdc0/UiPath_Robots_Logo_Video_Spotlight.png;" parent="1" vertex="1">
          <mxGeometry x="686" y="481.9" width="250.38" height="39.48" as="geometry" />
        </mxCell>
        <mxCell id="BUz5Cs6KhjB94nJ8huxt-23" value="" style="shape=image;verticalLabelPosition=bottom;labelBackgroundColor=default;verticalAlign=top;aspect=fixed;imageAspect=0;image=https://www.uipath.com/hubfs/resources/images/products/automation-cloud/Automation_Cloud_logo.png;" parent="1" vertex="1">
          <mxGeometry x="352" y="487.64" width="255.45" height="28" as="geometry" />
        </mxCell>
        <mxCell id="BUz5Cs6KhjB94nJ8huxt-30" value="" style="shape=image;verticalLabelPosition=bottom;labelBackgroundColor=default;verticalAlign=top;aspect=fixed;imageAspect=0;image=data:image/png,iVBORw0KGgoAAAANSUhEUgAAAOAAAADgCAMAAAAt85rTAAAA5FBMVEX///8AXaw9frgAAACZm55cXV8AWqsAWKoAW6tAgLkAUqhKe7n09PTFxcVViMCpyeMAYK3R0dFra2tVVVWPkZTF1+ldXFwLZK7m7PRMZ4O00Odtn80AVamPj4/n5+dQUFBhYWEATqYvLy+xsbFlkcTx9vrZ2dlERERKgb27u7ulpaXt7e0tdrTX19c8PDxJSUkWFhYzMzMlJSWVtdfP3eyjvduHh4d4eHgASKSHrdEmcbUccbJ6n8ufvdrd5/IUZKhMd6BkgqeEkqFRb49yiaNaZXBZan6KlaBGdahkiaymvM48c7YHntEsAAALLUlEQVR4nO2ca2OaSBeARQ2MBO818CpqjKLx0tw0STXGdrfbbnf9///nnQsMM8it3XbF7Hm+xCDoPM6ZmQPMkMsBAAAAAAAAAAAAAAAAAAAAAAAAAAAAAAAAAAAA/zF262OX4JdirRf2puUcuxi/Cus1vyjV1EGldeyS/Brao0U+X6opilZbW8cuzM/H6pTyeSaoILR5PXZ5fjLO8iWf54JYUd+8pTh12pVFXhIkitvdscv1s2it8xwuqCj2+fJNNEVrW1qECiqqum8fu3T/GOd1IejJglhxsDnxOF2NJL2gIFZUTjlOd+tSPh8vqCD7ennscv4or5VF0O9QEFciGq2OXdQfwKnmD/VCBRWkDUYn1xRXnTC9cEGMpldPqinuliHRGSeIa7FSPXap01OthNvFCGLDWuVEzqN2UbUXK0gU9fUJKK6W0XbxgnTIeMy4ovVaiqm+JEE8ZOijTJ9ltIKJy/cK4v7U7GS2Eq24xpdWEJ9lfFhmUnH3mmiXThArVjJ4llFNjM70goqmZO5seP2SRg8LftRQsiAabLKW2HRsM00Nfjrr/maiJEUtg9ekOhqqbRYHZ0cBva9nzXfF3z/V1Pj4XGctPnNEEA9iZmycfvt8dnF29q5YLP6xUCMrEWmjDPYwTFBBipmPrMRPX84IRLD4529KuCKy7ddMjhFMEBdQ3YQ3xW9fLi58Qcy3kKaItE3n2CJRuIK4kGFNETc+pucLFn//FmyKWi1zg4MPF8SKuD+VFT9/8fQEQdwUP4pxivRFltNQQRBXotQUcePz/URB2hS9g2w7mwmahyhIepsNb3xfLwQ9WRArunGq1bKbYjNkQRKnL6QWS5/OJL2gYHH2xx73TCdwvSIoSIaMRenz17MgAUESpx8XJ3DF6UCQKH4OVl+YIFbMeHRSQgQV9X+HfmGC745d+DSAIAhmHBAEwYzTsd+4YFUHwf+GYD+loJO1G/fpBPuN+nx6oBgiuLre//sOsaQRbDaGZNfeMElwNxrY5/++QyzJgs3L4tzduT6ME7QeFVtRT06w/1T3956XowXb1zZSTk6w2X9vSPsbw3ehgrtzk6YMJybIGp+M3xR9QWs0cK9CnZRgf9YLPaYeEHQeNzwfOiHB5nM56qBeWRRsjXT/MunJCDb7QyPmsF7xnSvojEwxXz8RwWajG6dHqM+IoPM6kG+Mnohg933ykUa96FTP9cCdmFMQRMpfSdXH+HukHdwRzb4gUs1FqZPibpGz3YSdLGdckF7XLuXzL0l3VJw2ssNuhWZcENU27v2lRakdp7gaDULssi5I7oEKdwe3kTdWVqHRmXVBhGrBG6Db8Epcm9FzZjIsyO6bSSwWrwe3j5z2Jjg0nIKg3/gCiqXAssjVVo+dLJNNQYQ+Rk932gprB6z1JuQyY+YFyY3r6LlOiwpfvtu6VmOrL6OCtcPGd9AUSZy2FoMkvSwK2okz1YjiqLXaHuZlpyDYipnEJVJahCYuB+hZE8y1Emaje4Jmmumi2iCLCwzC1mL9kKBWq2RztdZunayYLKjaGZ40s9omLitIErQ3j1meNOO0FgkLQ2IFkfphlGU9yjp6ZVaSoFbbZ7PxyazWcYuzogWRvsj6yiWPdvQaimhB7ZSeHBCxvjVaEKmDjA4NkXTCm2K4oKrsszzbN5zwVbyhgvbHLCYuiThh2VuIIBpsTyw6OdbhiqYDQVWvnV50+ljbUqwgsvfZW6b0fbTlpigJItvcZj5xScRqiym4JGhne8FuapzOS4ggsj+8nQeQrTpBQaSZb+oRcs6jm725gpq2fRvR6bN7rHBBskbwzUSnjzV6oYIo68uUfpzWKJ83NXN07HL8OnBTrL2RoSGK3VtsfAAAAAAAAAAAACeAUR9HLmN4ExRns+lbNiyPx0NjduxS/EJmxuzSmCbsNJ4OMdO6uyhgXMaI79e9DUbZZywuIXhflhmzzeKmkOVMTouwcg63uViHb7Cd3fdXuEjdXr0cX4P1p9sC5aHBfonxFf5HWOHRm+D/i3TXgs+k4a8CMRoFmSe2Xdhyd/F08DsvFZMgXZRqI9OnsvWfSWbVyBaNOlfZ2xpZ91uu16exyzWeH4RSNOjvPMMvb/w9ivjf23lQkPwixfSC1FH+ZueczlC3pYcftcXJ7qowz8Sik/oGVJA++wrpFfbl81wMBqu9+8nthInS4Lr3qoxa4Qp9YKs5ieDDFYPu3U0WvHogXN2R133pu5fuNMuBeL+3HViPoapVT1BxBZ0S/WG0UorrdXNaskYRNyhj2u3jwKNh18OyV26jMZ59WyJYfl+ndJukYsdc8KorMOWCE7Z3ffhEfhKxsTgjd4mBLT48jgkiLOZOElbdOvQFt+yxV+dpJqHQ6OMh3HtyC0yD9NngLy8MX5Af2yM/zpQLyrXDBS/5P+UJ/0EorRry7qsJVUEFkVmqYNgDvOy1LPhIb+cgM8315DkJIeE7eTjTmCt7hSzw1dSiII3dId/9Nkkw1+U/CMGpkApUg1VIBdXKziFsVKpiiYIregz6kOqJj8+BqPEhPSkNUtKD8gW5suB88n2C43vho3KrATG5Nklp9/54QAW1EatTh7XRnS+ou35augcnFKQCS3RZVzHEnUOD98KyYPlBDNFkwd6NKEhaIFJaa5v88ScmyIIVNSCIaFwjNd0zH+d+fxdauEKPlOneXw8vCdZxB3xV54KJbVAIaVJ2WoEVa0f+ahVehbJgHgUEFdpu7ZQPkS97w0LUm/1n+Scggpcu/Sv/PSJ4X65zvAxAFiyKbZA+j8be5nI2jTjeoiTBleb1nFyQdqxpHwhMvjF8QThhxoa0hrApMNAXvIQuOA4+jLkgH9znJOh5tO/25MbvHtdNixrxKmG96GZZxXQGyH9PENTT6SUJ9poFsQcNE+x6Y2VA8N4XvKd57nA4uymIFbikRSd3RllXqXuDmjsO2jqGjZPuSO8LIjXtXJtZrCDtROROlggWWYGH1OmiFy7Y44IS/MPYIK/TIXzpBasgKKQyXiYn1KBWSTnRlDSzuGXTOLO5lfJYsZMxxhcFcZiY9ARyoYL+KUqLPl5cr7ar1faWPi3YDhdU+WPiBUFFi1igGMTAX/ocL3gRKcjen8w9wYhh4q6PIYPpRIgVZ8tKq/uB6A32rqBp0hRAXfhnE+wQlr/pKQ2Dbew7BXmIxwg2yd85ruwH4WxpdbhGXd07vqB6Xm2xx375CRkT1NZsoNDTzSqaxVdhkuA0heAlfTHGdfjgR2jIM8uQ8ugLkmHCuqapnOlVlZuqOa8DVoepUpneXUFMLnJzOW9LErxMLZib4m+648Gis3SEoyh87PPHwTZNqm1vDgpPtrdu9adaLkPqoPDkdfZjfoIXI+htMHokC7g0uODc4MyNoCD7JnezG33nHNoM9bYsmFvSJc3aOiDodFjzNNOk20aXjWdTzKwp9eRRgk9Fdsp3SY/0e9G7/gWnXzwQpMltn9ahs1dpT+h/Lk0wNToeCIJsLEGuiH8+yIIX5zNpJkYbRbknvxWvNoUKSjTmXFDi+VAw91RwzzEfiY90Prek6Qsdv8VUbccymb2QydC0bceasLZI1ZXWr4SCFaU+FWfTTWnDQarm6scICtdhnpmhVbFxs7Ovhc+1ahreRK+xtAfklZuLtgd0e4nuo5PXHyx/Oz4g3WDx/vJ2cnNzM7ntBt547vefpBoc3zY5DeG5Rka33xTxQrTf7Helz2ve1HOta3K2fi3F1yPdRhaBsne9VQfudlLZFjuMZWlsr8r1YypBzBxnH+kelQIAAAAAAAAAAAAAAAAAAAAAAAAAAAAAAAAAAAD8Y/4Px7YpB9Zs9GEAAAAASUVORK5CYII=;" parent="1" vertex="1">
          <mxGeometry x="848" y="216.5" width="61" height="61" as="geometry" />
        </mxCell>
        <mxCell id="BUz5Cs6KhjB94nJ8huxt-31" value="" style="shape=image;verticalLabelPosition=bottom;labelBackgroundColor=default;verticalAlign=top;aspect=fixed;imageAspect=0;image=data:image/jpeg,/9j/4AAQSkZJRgABAQAAAQABAAD/2wCEAAkGBxEQEBUTEBIVFhAWFxYWFRUVGBAWFRgXFxYYGBYVFhUYHSghGB0lGxUXITEhJykrLi4uFx8zODMsNygtLisBCgoKDg0OGxAQGy8mICUtLS8vMi4tLS0vLS8tLy0tLy04Ly0tLSstLy0tLS0tLy0tLTUtLS0tLS0tLS0tLTIrLf/AABEIAKMBNgMBIgACEQEDEQH/xAAbAAEAAwADAQAAAAAAAAAAAAAABQYHAQMEAv/EAD8QAAIBAQQGBQoFBAEFAAAAAAABAgMEBRExBhIhQVFhInGBkaEHExQjMkJScrHBYpKi0eEzgsLwsiRDU4Px/8QAGwEBAAMBAQEBAAAAAAAAAAAAAAQFBgMCAQf/xAA0EQABAwIDBQcDAwUBAAAAAAABAAIDBBEhMVEFQWFxgRITkaGx0fAiweEGIzQyM2Jy8ST/2gAMAwEAAhEDEQA/ANxAARAAEQABEAARAAEQABEAIi/L/oWOGtWl0n7MI7Zy6lw5vBHprXPPZaLleXOa0XcbBS5A3vpXZLK3GdTWqL3IdKXU90e1ozy/dL7Vam4xbpUvgi9rX45ZvqWCIGnQLaDZeF5T0Huqqbam6IdT7e/grneHlHrybVCjCK3Obc5dywS8SBtGk1vqe1aZrlHVh/xwF3XJaLR/RpSkviwwj+eWC8SYpaLypTXn5QeG1wi2+yTwS7EdKqpodnxmSSwt1cToMzc9OOAw4wx1lW8BpOPQc8Pmigadntdp96clxcpfVvad70erreupN4+JbowSWCy8BgYif9aVZfeCNjW6EFx6kOaPAdTmtFF+nqcN/cc5x1vbysfMlUmda2Wd4ecqwe7Cc13NPae6x6YW+l/3tePCajL9WfiWSvZ4zi4zWKf+4x4EO9Ea003RcZ4e7jqzXDFSwXju7DR7I/UFLtEGOZoY/Q2II1B3cR4E7qqu2VU0pDoXOc3zHMZHoMdApW7vKRtwtNHD8VN4/ol+7LhdN92e1LGjVjJ745SXXF7UY/bruqUXq1acoP8AEmsep5PsPGoSjJSg3GS2qUW011NZFvLs6GQXZh5j5yKgx7QmjNni/kfnRb8DMNH9PqtLCFrTqQ/8iw149ayku59Zolgt1KvTVSlNTg8mvo1mnye0qKilkgP1DDUZfOBVtBUxzD6Tjpv+cQvWACOpCAAIgACIAAiAAIgACIAAiAAIgACIAAiAAIgACIAVbTPSZWKGpDB2ia6KzUY5a8l9Fva5M6RROkcGNzK8SSNjaXOyC+dL9LIWNOnTwnaWss4wx96fPgjL69WpWm6lWTnUlnKWf8LkfCTlJyk25Nttva23m2y4aJ6Ju0YVa2MaG5ZSqdXCPPu4mgjjho4ySeZ3ngPYddVQPfLWSADoNw4/nw0UPclwVrVLClHor2py2QXbvfJGg3PohZqGEprztTjJdFP8MMu/Fk/Z6EacVCEVGC2JJYJHhvO8PN9GPtb3wKPaG1yxhe49lo8Tw1J4DBXFJs5oIFru9Pmua4vO8FTWpD2/CKK89ueZ9vbteYwPzSvr5KuTtuwAyGn516LTQxCJtgvfdd1661p4qG5LN/wSk7ootYamHPGR3Xfh5qGGWqu/f4nqNfR7NpmQNBaHEgEkgG9+eQ0tusqyaokLziQqleNhdGWGcXk/3PPQrSpyUoPBr/dvIn9IMPNrjrbPv9ivNGX2lC2kqi2I2GBHC/ngVZU8hkju7krPZrRTtFNqUU90oySa7nmiuX1oNTmnKzPUn8MsXF9Tzj4o4oVpU5KUXg1/u3kWewW2NWOK2NZrganY22nSfTezx4O429R4YZVddQMzIuPMdc1jV5XbUozcKsHGS3PfzTya5o5ua969iqa9KWx+1B+zNcGuPPNGxXrdVK1Q1K0cVua2Si+MXuMs0i0fqWSeEttN+xNZPk+EuRtKasZUDsPGOm48vbPRZmoo3wHvGHDXePnhqtL0fvyjbKWvSeDXtwftRfB8Vwe8lzCbtt9Wy1o1qLwks08pR3xlyZsdxXvTtlGNWnv2Si84yWcX/u1NMrK2j7g9pv8ASfLh89VY0dYJh2XYOHnxUmACCpyAAIgACIAAiAAIgACIAAiAAIgACIAAiAAIo++7zhZaE608orYt8pP2YrrZi1rtVS0VZVarxnN4vguCXBJbCyeUa9/PWlUIPoUfa4Obz7ls69Yh7ku2VprQpQzk9r+GK9qXYvHBGgoYBBF3jsCRfkFQ10xml7tuQNuZ+YKc0K0c9Jl5yqvUQeXxy+HqW/uNOhFJYJYJbElkdVjssKNOMKawhFYJfudV5WrzcMVm8ijr60O7UrzZrQeg9z+FcUlN3bQxuZz5+wXTeVv830Ye39CAe3a8zlvHa8zlI/N6+vkrJO07ADIafk7ytDFE2JtguBgfWBzgQLrpdey77wdLotYw+nUSEr3pLJtvgQeBxgWlNtmqgj7ttiBlcXtyxHndR300bz2iu222p1ZYvYlkuB5WjsaOGiBJK+V5e83JzK7tAaLBdTR9UK0qclKLwa8evkGj4aDHlpDm4FdM8CrXd9tjWjitjWa4fwc2+w069OVOrHGEu9cGnuaKtZrRKnJSjmu59Zb6NVSipLJo3OytpGpZ9WD22v7++m7AhU9XTd2cMj8ssd0huedkrOnLbHOEvijx6+KGid+ysNoTb9RPCNRct0lzWPdiadpPdCtdBxWHnY9Km/xcMeDy8dxjtppNNprBptNPNNbGmbelmbVRFr88j7/N6ytVC6mlD2dPb5uW8Qkmk08U9qayae8+yk+TW+XVoys8306Ps8XTeX5Xs6nEuxRTRGKQsO75fqruGUSsDxv+W6IADkuqAAIgACIAAiAAIgACIAAiAAIgACIR9+XgrNZqtZ+5Ftc5PZFdsml2kgUXyqW3VoU6Ke2pJyfywWT/ALpRfYdqaLvZWsO8+W/yXGol7qJzxuHnu81nVLGTcpPGTbbbzbe1t9pp3k8uvzdF1pLpVNkeUYv7yXgjObBZ3OcYR9qTUV1t4L6m4WSzxpU404+zCKiupLAt9qTEMDBv9B+VU7Mhu4v09T+F3kJpA9sFuwl9ibIy+rO5Q1lnH75mQ2xG6Sika3gfAgnyBWjpnBsoJ+XwUEfSRwjk/Pbq3K6bRWcXgjq9KlyO6tVS2NYnV6RH4fofRlkujRh/SuPSpch6TLkc+kR+H6D0iPw/Q+9F6t/iuPSJcj59IlyPv0iPw/Q4doj8P0PvRLf4rmjUcscT7ZxSqJ5LA+mfd68nPJdbLJcP9BcnLDvK5qtvBZ7kW6w0PN04x4Lxe1/U0P6ejJnc/cG28SCPIFQ69w7sN4/b8r0mZeUK6/NV1ViuhVxb5SXtd6wfXiaaQGmlh89Y57OlDpx/tz/S2bqil7uYHccD1VBVxd5ERvGI6LL9Hrx9FtlKrjhBS1Z/LLZLHqxx7DbzALTE2XRK3efsVGbeMtRRk9+tDoNvrcce0nbVjwbJ0+4+6gbLkxdGeY9D9lNAAplcIAAiAAIgACIAAiAAIgACIAAiAAIhlXlNra9tjHdCnFYc5OTb7tXuNVMa04nrXlX5ai7qcfuWWyxeYnQH7D7qu2o60IGpH3P2Xq0FsynbaeOUdaX5U8PFo1szbyaQTtE3vVN+Mo/saSedpuvPbQD3XvZzbQ31JQAFepygrzu/V6UF0N64fwR5bSCvK79XpQ9neuH8GQ2zsfsXngGG8acRw1G7MYXtYU9Rf6XZqMnTTzR8+jx4fU7QZm6ndojeur0ePD6j0ePD6naBcp2narq9Hjw+pw7PHh9TuOGfQSvvadquqMEsgz6ZN3Xd2p05rpblw5vmTqGikrJOwzqdB8yG/wASOcswjF3JdV26nTmunuXwksAb+mpo6eMRxjAefE8fgwVPJI6R3ach11aalFxeTTT6nsZ2A7rwsIt1HUlKLzi3F9jw+xoHkrr42apB+5UxXVKK2d6feU/SmCVrrpZa8/F4lg8k0+naY8VSfdrr7mjrfrpS7kfMe6z9H9FUG/7D19lo4AM4tAgACIAAiAAIgACIAAiAAIgACIAAiGMaZrC8rR80PGnBmzmR+USjqXhKXxxpy/Tq/wCBZ7KI74/6n1CrdqC8IOjh6FSvkzfr6nyf5I0cy7yd1tW1pfHCUfpL/E1E57SFp+gXXZ5/YHMoACApqHDRyAigbxsGr0o+z9P4PAWtrHPIr15WdU54LJ7VyMZtvZTYP34v6ScRoTpwPkeGVjTTl30uzXlAODOqYhww2TF1WDDCc8/dXDr5k2hoZKuXu2dTuA+ZDeeFyPEkjYxcrm67u1cJzXS3Lh18yWAP0ClpY6aMRxjDzJ1PH/gwVRJIXuuUABIXhAAEWNaWP/rK/wA8ic8k69baH+Gn4uf7FYvqv5yvVn8UpPscnh4Fx8lFHCnaJ8Zwj+WLf+Roqz6aQg6NHmFn6b6qwEauPkfdX8AGdWgQABEAARAAEQABEAARAAEQABEAARDOfKrZMJUKyW6UJPq6UfrI0Yr2nF3ekWKoksZQ9ZHrhjiu2Lku0lUUndztPTxUasj7yFzRpfwxWZ3DbPM2ilU3RlFvqyl4Nm2mA2eRsOiF5ekWWDbxnDoT44xyfbHB95YbViwa8cvv7qBsuUfUzr7qdABSq4QABEIK/X04/L92TpA3++nH5fuyn29/Cdzb6hSqP+70KipVsJJYHZieSo/WLsPRiYUhW5aLBctkzdN444U55+6+PJ8yEbPZd1idWWOUFvLHZcs8dQO4FycCNxHHS2d93K4PCdjCw9tWcAH6CVSoAAiEfftr8zZqtTeovD5nsj4tEgUbyk3jhGFCL2t68+pbIp9bxf8AajvTRd7K1u7fyC41Endxl3y6zuuzVvJ5Y/NWCDawc3Kb7XhH9MYmVU6Eq1SFKHtTlGC65PDE3SyWeNKnCnD2YRjCPVFJLwRa7VksxrNTfw/Kqtlx3e5+gt4/hegAFGrtAAEQABEAARAAEQABEAARAAEQABEODkBFiekt1eh2udNf030qfyyyXY8V2EtoPfCs9o1ZvClVwjLgpe5LvbXbjuLbp3cXpVn16axr0sZRwzlH3o+GK5rmZTQqYmjgkbV09nZ5H7H781np2Glnu3LMfcfZb+Cp6EaQefpqlVfroLY3nOK382t/fxLYUEsTonljtyvYpGyNDm5FAAc10Qr+kD9ZH5fuywFc0kfrI/L92VG3f4TubfUKXRf3ehUNUfTXYd+J5aj6a7DvxMQQrojAL6bJq5LdHBUnsax1XxxeXWQTZ7LssMqsuEFv+3WWGzJJo6gGEXJwI1GZ5ZXvutvyUeojY5h7eAVtABvlRIAAi89rtMKVOU6jwhFNt8kYzfV4StFadWWcnilwWUY9iSLNp3pAqsvMUn6uL6bWUpLd1L69RTaFCderGlTWM5tRivu+SzfUX2zqbu294/AnyGf58FRbQqO27u25DzOX48VavJndPnK0rTJdCn0Yc5SW19kX+pGoEfct2QstCFGGUVte+UntlJ9bJAqaufvpS/dkOX5zVrSwdzEG79/P5ggAI6kIAAiAAIgACIAAiAAIgACIAAiAAIgACIZf5QNG3RqO00Y+qm/WJe7N+98svB9ZqB11aalFxkk4tNNPamnsaaJFNUOgf2h1Go+fNy4VNO2dnZPQ6FYXY7VKElKDalFpprNNGqaLaSwtcdSeEbQltjulh70f23FJ0v0TnZG6tHGVmb63Tx3PjHg+/i6/ZrQ4tOLaknimm00+Ke4vJooqyMOaeR04H2/6qSKWWkkLXDmNeI91vQKLo/pupJQtex5KqlsfzpZda8C60qkZxUotSi9qaaafU0UM0D4XWePYq9imZKLsK7StaTP1kflX1kWUrWk/9SPy/wCT/co9t/w3c2+oVjQ/3uhUHN9Ndh26x0ST1sTsxMX2VeHcvrEn7gvCOqqUtksXqvji8cOsruJ7bqsEqs9myKwxlw5LmT9mySx1AMQuThbUXF+WV77uKj1MbHRntmw1+eiuYB5Lwt9KhDXrTUY883ySzb6jeAEmwWeJAFyvWUPTDStYSoWeXKdReMYP6vu5RukumE66dOhjCjk370+vD2Vy/wDhTqlXgXNHs6xD5M9w9/bx0VRWbQFuzGeZ9vfw1StUNN0C0bdmh56tHC0TWyLzhHhyk83w2LiePQnQ903G0WpesW2nTfu8Jz/FwW7ryvx42hWh37UZw3nXhy115Z+qCjLT3sgx3DTjz0055AAVCtkAARAAEQABEAARAAEQABEAARAAEQABEAARAAEXxUgmmmk09jT2pp5poz7SfQR4urYlzlRbwx+RvL5X2PcaIDtBUSQuuw+xXGeBkzey8e4WAycoScZxcZrY4yTTT5p5EndV9V7M8aNRxW+OcX1xeztzNVvm4bPa1hXppyWU1smuqS+j2FEvbyfV6bbs01UjujLCM+r4X4dRdRV8Ew7MmHPJU0lDPCe0zHln4KWu3ygJ7LRSwfxU9q/JJ7O9kvUvexWuGCrRjJey5Ywaf92GJlFroVaEtWtTnCXCaa7m8z4jXPM+yaedpFsDpiPv5FeodqzROF8x0PzmFfqkdV4Yp84tNPqazR84lQu+9HSls2xea+6JmvfNJRxjLWe6O1PtMBtD9MVVPOGQNL2uyIGXB24czgRjqBraLbdNNEXyuDHDME+Y3m+gxvhvBM5ZKMZy6dSNOG+UpRj3Y5smK2k1hsy1Izxw92mnL9WWPaZXXtjnJyk8W/8AdnM6JWg1uzP01FSs+s3ecyPQb7Dpf0z9dt50zvoFm7r+p3X9Fe7z0+nLFWemor4pdKXWlkn3lPt1vnVk5VZynLjJ49i4Lkhd11Wq0v1FGcl8WGEPzvBFwubyc5StdT/1wb/VN/ZdpcXpqXQHxPv5gcVW/wDpqtSPAfOhKpdgsda0z83Qg5y34ZJcZSyius0rRXQ2nZcKtXCpaM0/ch8ieb/E+zAsdgsNKzwUKMIwgt0V4t73zZ6yrqtoPlHZZg3zPP2CsqagZEe07F3kOXuUABXqwQABEAARAAEQABEAARAAEQABEAARAAEQABEAARAAEQABEAARddWClskk09zSa7iEvHRWxVNsrPBPH3daH/BoA6Rvcw3abcl4exr8HC44rNtKrtpUG/NRcf7pv6tldT2gGppnEsF1lqkAPwV40buCzVsPO09bL3qi+jL5Y9HbJRwdOhBNZNrWl+aWLOQZ6tnky7R8StDRwxgX7IvyClQAQ1LQABEAARAAEQABEAARAAEQABEAARf/2Q==;" parent="1" vertex="1">
          <mxGeometry x="849.49" y="281.2" width="58.01" height="30.5" as="geometry" />
        </mxCell>
        <mxCell id="HRoIjgGC-OPo9JwMi8IM-1" value="" style="sketch=0;outlineConnect=0;fontColor=#232F3E;gradientColor=none;fillColor=#BF0816;strokeColor=none;dashed=0;verticalLabelPosition=bottom;verticalAlign=top;align=center;html=1;fontSize=12;fontStyle=0;aspect=fixed;shape=mxgraph.aws4.email;" vertex="1" parent="1">
          <mxGeometry x="66.25" y="345.5" width="78" height="69" as="geometry" />
        </mxCell>
        <mxCell id="HRoIjgGC-OPo9JwMi8IM-2" value="Shared drive" style="sketch=0;aspect=fixed;pointerEvents=1;shadow=0;dashed=0;html=1;strokeColor=none;labelPosition=center;verticalLabelPosition=bottom;verticalAlign=top;align=center;fillColor=#00188D;shape=mxgraph.mscae.enterprise.shared_folder" vertex="1" parent="1">
          <mxGeometry x="75.14999999999998" y="445.64" width="60.2" height="70" as="geometry" />
        </mxCell>
        <mxCell id="HRoIjgGC-OPo9JwMi8IM-3" value="" style="sketch=0;html=1;aspect=fixed;strokeColor=none;shadow=0;align=center;verticalAlign=top;fillColor=#3B8DF1;shape=mxgraph.gcp2.website" vertex="1" parent="1">
          <mxGeometry x="76.9" y="565" width="69" height="66.93" as="geometry" />
        </mxCell>
        <mxCell id="HRoIjgGC-OPo9JwMi8IM-4" value="User Interface" style="text;html=1;align=center;verticalAlign=middle;resizable=0;points=[];autosize=1;strokeColor=none;fillColor=none;" vertex="1" parent="1">
          <mxGeometry x="64" y="647.5" width="93" height="26" as="geometry" />
        </mxCell>
        <mxCell id="HRoIjgGC-OPo9JwMi8IM-9" style="edgeStyle=orthogonalEdgeStyle;rounded=0;orthogonalLoop=1;jettySize=auto;html=1;exitX=0.1;exitY=0.5;exitDx=0;exitDy=0;exitPerimeter=0;" edge="1" parent="1" source="HRoIjgGC-OPo9JwMi8IM-5" target="BUz5Cs6KhjB94nJ8huxt-5">
          <mxGeometry relative="1" as="geometry">
            <Array as="points">
              <mxPoint x="192" y="415" />
              <mxPoint x="287" y="415" />
              <mxPoint x="287" y="179" />
            </Array>
          </mxGeometry>
        </mxCell>
        <mxCell id="HRoIjgGC-OPo9JwMi8IM-10" style="edgeStyle=orthogonalEdgeStyle;rounded=0;orthogonalLoop=1;jettySize=auto;html=1;exitX=0.1;exitY=0.5;exitDx=0;exitDy=0;exitPerimeter=0;" edge="1" parent="1" source="HRoIjgGC-OPo9JwMi8IM-5" target="BUz5Cs6KhjB94nJ8huxt-23">
          <mxGeometry relative="1" as="geometry">
            <Array as="points">
              <mxPoint x="192" y="416" />
              <mxPoint x="288" y="416" />
              <mxPoint x="288" y="502" />
            </Array>
          </mxGeometry>
        </mxCell>
        <mxCell id="HRoIjgGC-OPo9JwMi8IM-11" value="Input/Triggers" style="edgeLabel;html=1;align=center;verticalAlign=middle;resizable=0;points=[];" vertex="1" connectable="0" parent="HRoIjgGC-OPo9JwMi8IM-10">
          <mxGeometry x="-0.8152" y="-1" relative="1" as="geometry">
            <mxPoint x="23" y="-4" as="offset" />
          </mxGeometry>
        </mxCell>
        <mxCell id="HRoIjgGC-OPo9JwMi8IM-5" value="" style="shape=curlyBracket;whiteSpace=wrap;html=1;rounded=1;flipH=1;" vertex="1" parent="1">
          <mxGeometry x="174" y="59" width="30" height="711" as="geometry" />
        </mxCell>
        <mxCell id="HRoIjgGC-OPo9JwMi8IM-7" style="edgeStyle=orthogonalEdgeStyle;rounded=0;orthogonalLoop=1;jettySize=auto;html=1;entryX=0;entryY=0.5;entryDx=0;entryDy=0;dashed=1;" edge="1" parent="1" source="BUz5Cs6KhjB94nJ8huxt-23" target="BUz5Cs6KhjB94nJ8huxt-20">
          <mxGeometry relative="1" as="geometry" />
        </mxCell>
        <mxCell id="HRoIjgGC-OPo9JwMi8IM-6" value="UiPath Queue Triggers" style="shape=image;verticalLabelPosition=bottom;labelBackgroundColor=default;verticalAlign=top;aspect=fixed;imageAspect=0;image=data:image/png,iVBORw0KGgoAAAANSUhEUgAAAQcAAADTCAYAAACMc9YqAAAAAXNSR0IArs4c6QAAAARnQU1BAACxjwv8YQUAAAAJcEhZcwAADsMAAA7DAcdvqGQAAFn1SURBVHhe7b0HmCXXdR54Krz3OkzPYAIyCCIQJEGItAIIMynLlChasla0rF2vZVGrtdfelWTJq1WwtRKlpWhpJUqkRIvSJyqQNE2KYAQJBoAgciZBAIOcZ4CZweTQ6YUK/v9z6r6q9/p1z3QadL++f3+nK92691a9e/57zk0VnPuTH8tlFZAFxY6ExZbI+raGcAk5YPx5N40SQRGXizPP825egqD3hjCv5s3Dw6OK06AdJAInRC8xGJiNxUsA5a5KlIVKChSSAsXDw2NpoJatKLIgU+klhar0Y2lZMBIgGZSEYLD4aC04CXCRIsyXEw8PjwWx4uQwB1WFXLRiMuxCkhRSnjNyMpfDJOvuGxjOw8PjZFgxcnC1tEMeQikphWIOlrm1/GLFoXrMuNm+YBLhBNKhKFafDz08hgGnX1P6lHQuYZy6zEWI84g3jwupV/b7jj1JeHgsiNXRkAGuQ57lkKBoKLStw2o2Hrq4ySUuD0TZRuHh4TEIK0wOIIU+YlBCUIUsLAU9hrJmOE5h9q+wkjK+APmgSJYiwRT7CcggQw4yibCNfbODh8dJsfKWQ9dtAIp9EoL6/kguCEkIMP9Zm7MmxxZnTakXKUQGN4JSPgo1P0O8qeTS0X32VLChMkQWAngUhfHg4eGxAFaeHBwqbQskhBCaGYahEUGAYyo3exKc2Y9z3C4OC2efpEBCILIskU7akSTzZoOHx6lghcmhiE6JwYkhTRNY+KjFYepH0gYZtCUMsA+JQ5j7xX4IFyDIO4Xw2NyBwQJ3oUcQJ7eIW+OCC8H0UpACEcTID4gqxcZbDx4eC2MFhk9bTWzKVpIBnQXbwu9nGLgQVOg63QoobKY1eIaruURRpNYF2yIcnBXRP+S5H2WKhLMKuA0lzUEEsFSYcg4TwnJglkyk6ffeXYVvsPTY6FglcoAyFnskhwA1OGtyNg7GOawG1O5sD4iwP1rPZTSOuyRA16NKCAu7Go4M+pFJkoi02pm0kLGMXZjRiLSzGFdiEaSXaYY9OXh4zIdVIAdTOEaawV0IU5j3sBRo8tOdmNgUyKWXnCuXv/piOe/sbXLmWCibOOyggsg1FAAVY2IAkPaAblOik4XS6eRybDKT5/cekUce2yWPPbNHTsx0JBydkCSv4W7LbzlmAm5IkV5JDlUCqaY1P7F4eAwDVowcUpBAXB9Bjc1jKlwGckhQT3ekJk0Zlxl57SvOk7f9k6vkileeJ1u3jMnYiMhoDRW5xrB49Nf9NDKMpAwwWCSFBTHZFDl0PJMHHn9WPvWFm+Sp549KO9+iBJHXGtjCvcHNbJJgFyitFTg6iMDIo4QnB4+Ng2WTg3YRIgYz/+HTQ6dqIUz4dBYmQAcuQ0u21Dvyw295rfz0294iF50Vy1iNvRM5rAuSR4S7SkXLFnQjKigsBlVi3O8GN9mGbowds7uUbQ+dMJCpjsjT+zvyqWvukC9/7UFph5vkeIL04GbAXNG2kBD54j3dYdfFMykxOCsF5/10b49hRzRx+TveVewvCTmVnOMMILnWrFA29kjApYiDpmyKpuR/fvt3yc//8++Vi7aHMgqdq4EAwryN61DCvvqf7Q1VCecThGW3qMG6Qvmnyo199UegwNocSaXGqXocwGKJ5DWXX4ScxvLQow9LGNV5N/4isU6NCHm3eDPEk3Gfh4iXwjEaBO/w8BhmrAA5mJLQbw8iqhlq6gQuhrRABLPyQ2+6XP7Pn/kh2VYXabBm1toZvn3ExkESSk17FHBmoFANLdZ+CXGf9T6YMANwI/CP+ykVW7MGNQYZBUEqSXsWBAFbpc52j/PkxFRbnnp2N6wOkEjUgLVRU06BQ6R8lcMkYhxGgIgJ/zRKi7XY8/AYTqwAOZgYoFRQxNE6mKAzKRedMya/+HPvkAu3hTKCMDVoGq0Lzq1oYr+ZxzKLW1qJSBO1NrdtHqcmswvIDMJNQ7ilNHkO9zM+nm9BwFHCJpCwFkLxQ6nFzgnBfkNk25nnyF337pTZJsONwPjhEEoKbgQ54FYlBrMa7CH538SOPTyGFSvS5qAEobUzauukA6shl7FoWt76xkvk//2Vt8sZuF6nfnGEYh7B/w/lwJTIPQ89LTsffUqmptuS4D51B4CFxji4c6zRs4KVnKnPtg9daIZ5ylPZvGlCrrjkQrnisgvl5eeNW1sH8hDGdWkj/AvHMvnrj98sX/zagzKdbkWuG5JFESwGXA3aheWB/JApIOQItjXY1q55eAwrVqZBEgrbyTpSCxs6CjJNpuXsLR35d//L98pPve3bZAJKVss46Qk1O2rwh3cdlb/62HVy24O7JJG6dKBwGe4jBhHC/DBF1T33FCQHOgYaTSZx0pTLzt8u//ZnfljecuXFMg49jxCYFsGJJJRrb3ta/uD9n4TFcS5ckVFJoxquzcKK6BjRKNTHwDbWdDw5eGwEWJW7TKRUfFgD7GlgjR3XIonDQC449yyBey8cm8h5DuzenESl/Jmv3iV3P/w8zP/NMtUZhSsxLkkwIR3ZpJKEEyrueD5JctumxdZJK9gsrXxCmsEZsFK2yDP7JuWvP/wpOXI8Ma+Bg7LgFjRikbO2bZFGHXkP4ZNEqebfYD0SJAEVPefIwsNj+LEi5KC1vdasZtJTmWJYCDvO2KQJsLmQYG1+YFJk1+FUTnTGpCXjUMhxqmlXuCBLnqL2htjiLPNLDquD2yyIVSSAW8DaH+ezcFQliUg2o/LC/kk5Mc3RmuxqjZQcaFzUIqTaQHrINC2FIESY7vOY8B5nLXDr4bERsGxyUB8cWs9Gxiq0zwA1NAc4cV9rZCoclSuPccwuRqdphRIW07pPRWyqNqKi4JjCc5yrwes54irPxbAuIumkHLhNCoMVw6uaPAkB+6r5Rm6EIwRrz6DYsbcePDYKrNQvA1RQ8+8JKrgdUNdikAOPOMOSx9poSd3i7ExccwuwmMKZcHDUqQlqfhIAJ1TBheFW86HKXEIJAuSQcBwDCELzq7ky0IJgCJcfvar7eAYuSIP4uNX9LhjOw2O4sWxy6IfrtTAlK84FNNuhhjhPj14bMalgXf9+KSgJpSq0ApQ4GHdGKTLRg75zFULpt4CIXgL08NgYWAFygEKSBVjVqoIOgiVDBVPeKEx3G3VQKt9ixGCEoK4F4qS4cxQloCItEgbvK3pJNWXNch/sUU7ltfSmRSHpmeBoAfHwWA9YEctBK9tCCR3U10fstA04kpHCcAkkZXsBj5eZPK0UbT/AluKgLgFdD6YCF0GtCAWJjA9dtIEU+bZwFsLA3Fk4ukZVklFwfz7x8BgSrAg5dJWiTzkKtQIxcFUHEx6z9jTr3UjCsrFUGQxT9mp+kBKYoSQBIwo2mOoqVMWUcje1PJImiAEiM7pfw35XMlzP+0TD20pUjLv6MZ1+i8bDYz1gfu1aBNxK0rqyNBsHi1pca3BuoRA1EEMMTdFjnDczHwrbVdalwbVrGCw1ood02KgI4QAtgrykVgG2VPZG56iMJi/KeG4ylu2T8eyAbMoh2SGZSA/JpuSgbEoPyhhkHOerMoGwY+l+Gcn3I95JSZKmEuVsu2VECCslDLn6FYnDw2N9YAXWczCk+CPYIBinHTlvc0v+/Hd+Vl538XgxtYoIZeeBQP7LX31R7r7/OWkHm6A5VFFT6KWA6ZoVgrSDqIcsVClJTKjpqcR/+ce/Lt95aSxjnDuBPOZRQ47N5LLn8JR0onHp5BE5DvlFXH1vpeK1dLPLMDxPgktwLo1EPnv9o3LtTQ/I4aPTeBd1ieOGzM5OyUhslMTZn8t5Xg+P04UNUUr7GwI5/CmK6jiZy1icy2Uv2yyvODeSV54r8mrIq87D9vw+uaCUy3Gd8hqcvwLHFO6/6hyRsyZgocxO6nBxfh8jbbZkJKhLI6/rV8A9PNYLNlRpdd4+myBpy3Ch2Xqdn+7PZQRuD/RaxkEiowjB415JKpJCOoWkHNeJrYm0p3Va+ki9BhsBkcEUqYUc7RkXC9J4gvBYH1i1klpdSXotwMZeGEgSCRS3nWY6HyTCW6jjOsdUxmkKsmA3a6/U8KooMe7jS6MwRlV3PKo6C9jWa7AQcMCl+NkAGzdqoJBM2qQkJuThsU4w1KWVbRFVd4LQBkL8kSJCTs9mowGIzA2n1nUkuaMUArgGjcqr4hmjiLngepQdxMWP57D9k+tsczUptmWwXaI/Px4eaxVDSw5dnS7Qf5xx9CRr88Ki0I/sgigGKm8PQTgp4e4hndBaEPbYcF3KWmRjPSBZpDNMLKCHxzpAbykfYlR7H+g+cE0HybmoC0c02niLDrZcjIajFlqQNkiBi8J0oPzcsiOSbRUJznPRWuuyBcHkCYwPUAPCaTuDEo2RD4dwkxZKa4Ti4bH2MbTkMLcrsnqC3ZuJxFBqSVty/Nik7N/flP2H2rLnUEtl76FZ2XN4VvZBuL/v8Iy8eGhG9h2YlkPHZqnuiJOf7oPyU/EDtmJYuhxTQZIgKUQ4oRPM+P0ODeHhsT6wauMczt3UlA/87jtP6zgHqmQVbpwDRzDqOIc/+nW58tJYRgPclbdgP8Ry8HhTvnbLw7Lz0UNqMXAJO7oFhMuV+4Q/FZ+Dpi65YLP87E//sDQiEAJIJkI8bE9oY/vBTz0gf/fZu+VEC1ZIwDUnLBYjDd0Flv68Hh6nC+u2lNLPX2rjHg17EkNb6nK0Fct9TxyQL935tFx717Ny7d0vyDV37lb5wu0mX6Tc+bxcC7nujifl/kefUxcjgwsSIA62W5CYqPvOQjnl7294eKxRrPsqrNtWuAjwoeOA4xCozLALwBZpEEsa16WFq7r2A49R82dQfloAXF2qE4zA2qlJK42s/YHtDMVwcX4SmKh2mVbBML2ujYfH2sYGtW/N+3emPlex7mDL72vmHDkZkhTso7u0MCgkCl1+LmjgMpehM8uFXZfcMkav+x7DhKEhh16f/uSwT95xz9Zg4IQx7bWApmdcMJdGAeJjvAzD9gvOK03yRDod9k7gesBP+dlMz5QNk4hvPsvBw2O9Ycnk4Hx+J0S/ic+pyq7jjjrGFRa6wLWuLBEuPVPgEjzvxOVNUUmLH85V4FzIkYtFIyTBlgQ2ZLK3gdfLZ7T7I4SvBFcEIJaTWQ4unnJRmH4pAnp4rAGsiOXAwT0c6MPal8vUhyHHC3R0pCA/P5mgVtXxAYVusvGO05e7Kz33QX14xEM5GQKdQ8nHgDojKkcITDvjF6wIdjOCQVjDU4HpRnAGp8bOqdxqRdjycq5dQPOFGzJ+bIPxcJk7pBWzNwN3khy4xy9p4YGxb/Mt9Swu2toR7CmxXg6LAzd5eKwTsHwvC7qoCbsMqUPs3w9iVLa5NOKGfsWKoPlNhaKWILiOL2D/f9pOJOXUaZrsEA1TSBRDuTR35bm5QnJAWBABhU2JZbcj4uRYhpAKmkg9TKQGRefwaN6bpm0QALtCTWHJQyQjnfYNcQ2Imjf6EBWosgPly+Ne9VVW93HUvR1EdFJ+cHH1i4fH6cWKlDoqi05WgoQplJoTCcgLKWtbAorPAUdBS7ZsEhlvpBIlqYzGI1KPa65ixnVEUAgtC/r41XNVsfELNpCJfQc6rtEdQxq4TpH2jNTSWbnisotlooHHJYkxPIdXFOguKstFYWiJdMkA9xNIj8/INA3Fa+sq/Xxgegy7+NdcklMpHh6nE4svtX1QpbEqHgUY5roqViadTlsOHjiKWpcXYE3A/GbYLWMib3jdxXLpeZuklhyCxX8M3DGpEubTEgezKpEuzza/1PIZqUNimYI6TxXnm6WkuJaekIloRs7ZHMj3v+G1cu7Wmn6BS1eFYi8DstaCPzQ13UI+4TREkU63VoWuKDW/XWG1P+9wBNGPqklgYQYrtIt3kHh4rB0s+SvbpXkMcx72eUKlUpNcpAErIIaCbp+I5A3fdSn24Y/TNwc7sL3hwgvOkZFGHWdT2bRpVDZvGpOt4w3ZAebYvmVUtm0akW0TC8vWzXXZvhn72G7FdsvmhmzePCpnTGyCjMvWLQ05/8zNcvmFW+WH3vAq+bEfuFK2jYewLMBDyGse24qRTzw/KV/62t0yOQtTohityUdjm4Ouqo18R7maNfhj5+asvOzMUfnhH/h2XceBzQgMTxqgY3TvI/vlW489r18Nx+vFNSp90ONOVHbngKnoVtOvip728DhtWPLwadeyrj0SzleHMrDmDZOmjMcz8tpLtsi7f+NfywXbRGpBCouAKxvAOIeytRB+/xGRF/Yfl9lW2m2fcMgK0z48SSOehkMeVPmK2p5p1MNMJsbH5Pztm0A6ImPQ+yi3BlDmnd2W+6dFPv6lh+RvPv4VaYXbQXAc0wCrwqUZcKgTYnQrOIVtGcuOyBuv2CZ/8nv/m2xG0lz9jaHZKNtCJv7i0w/I337uTjk+C0KQEX0nBBtsDWZBzYf5l8Wfz2Lx8FgdrAw5oMqMUBOr8QD7O0jbUs+actamUP71T75JfvqffptM1DmEiHMdOV4gh9c/ApJgTwPuKXJAxV0MSAhm6FsEVucbtH0AxKGtHiSP3BQ9C2OdbdkCQd332FH547/8ijyx66i0o3GEY+6sptYVoymIJ0rBLHrcRq6PyJsv32HkgKu0NZhqSQ7fkr/9PMhhhk2kHFoNcoDCe3LwWG+YrySeMuiPc7k1TmGm2pM08jiUJKrJkWYuX7zpG3Lzvc/JZMJp0PzILWvTmvrwIawJ1NNQYOtFcDMYuT0VYT1fg7jGRxvsDLcGUkd+YloKBSnkIAUSAx0DNl8+ty+XT3/5G/Lk7hOwGsZ0uHTGJZyQMSUG5IxjIfhcfCY+GztklS5INtzij2e14VTP4592eZq14BoSlQ6LfYKWVrlkXK/wtAli70qiWw+P0wmWyCVBlbuoAVnT6nHRMMlinIIcmiCDp1+ckY989ha57vZn5EiLNXYN16nCbH3AfVByddyxr9Fhn1uVbq/BYDDNwhFQsW5NO6/R4o8NoUSKuLRPA3r8/P5M/v7qm+TGO5+WZrhZkmAE+eV3NKnsVfeGykobxPIBnsC+zgNFXESpsEoaEEcCFL4PEgUtKkcG2u2L8+Sh8q4ynrlY6JqHx+phyeTgQEVkFyZXW+aAH127gBdoStORSMfksV1T8uFP3iIf/+z98tieXI7CipiEWk9DcczRoFrjFiUI7pvQFGedTNUcJOwxNduDCmz3aAcomCFl2wIshRZkVtOqyYHZQL58xx75ww98Rr52y4PSTJE2lFhrZyittZ3ArWBuQCZ0CfinDZXscckg2vOiZ5ESQpIxNA84QqZIeSrMIPb4LiLGSdJDnEYcqSRpR9IENINjQq+dhAw9PE4nltxbUYJkYGptKktAaVDj5rAScvj2OZTq+ImmPPnMHnnw4Ydl997DMt2qgRjqUq/BkoAG8TN53VWXEI1+Nk+VPUBdPr/wnrbuc/QCCcndIzI5K7L3cEcefe4ILJdHQU53yFduekSe2TcjsynyFo1ICzzA9pIcLg5JgeMm2SWr1gfis0/wQ82RH1o6cTojF2wfkR/9we+EXQQaoOIjvHsD33j0gDz46AvSTPj8iDfBFbgaHKJNUqDFgFvYCWKWBfaZkm0RtrB0yncJ0mB47JG2PDxOF1ZgsRcze1mkuaekQPOcJZo1Lmxqfm5OeyrSWRmLE6nD1BgfGZXRekOiEGqtCuOUArfB+qge92Nuw6XlwYF2hC3jxqHbsE6STCZnWjLTzEAcEWpthkDekDCHWOuwbygex0CkHX4CD84A7oNeIzOWj5gjNrOO1LPD8ubvOEv+6HfeKVsQvusdIFgb27/41P3y0c/fLcfBWlleh7VBosQ+0qBlwn21HrBDwnDtE/YGy621ezCstWfQKjF7xcPj9GDZ5NDbUOYKuCMH2hQ0nUEQsRn//CQda+BaSMWBsuZwBFgtA85Xd1i498LSLcOUabNngedp8lOYsh4jPRJRHMXS6SBfTJdKC/0jqQUkMhDTaESbAfEg/5206M6MubQc8p4clu+64kx533v+D5lAXgOEt/kWJKJA/uoz35K/+fStcugEHKbaKNKqSbsNYkSciARSszzz3fAdASSKdtKRuNZA3gsC8OTg8RLDadSywDKu7QOQorwDdDcgOFeLY/jXoAnUxiEUJoOCoBKXGRy3pWa1eSG8dirSAbm0oeQU7uviLHBT3LoLs8hICzVzVh+xc3BxQmzzLJLZWRBSVkOeQBxtOCFQ1CiHYsLViBFGOqj228dhKRyXejgJ6+YYdPUYwhyXWtSURh2aqrrLZ4TNAVJJU34fE8/fmZSRuCnj9bZE6SSskWkZqTVx3wziaYGg2iALbm0yGMmQ3b9j4+NKVB4eawUrYjmQEGguuz561qY2jJo1n3Vvup6MpMPaOyyOKa6GHJyN+ayHchwCD8q2AQPMdyhtFuI6XJsIxAD7QPNkVgwbIlkLo9aH5UIXg+RRQ77oAr31u6+Q7/y2C2S8AZsDaWQBfQTch+jqQUvO3FKXK3GdX7ti7tg+wfeQZKE8tmdaHn/usOS1MWmCeCJ2nxbvpx1ukaf2z8pNN90pu57bg3dgjZtcHyKMa3gms3Cq8JaDx0uFVXMrrLXeQMUoUVXi5aCaLtFLDr2wa5YnKjvqewhdiBhCcklgeRjZZPJdr9osv/jOt8vrLg1kFHmnR0AdpUtC9URIxMgmSJcO4wdJYpvgYclTOj0d2xRpMlnqPHhDPnrtbvnEp78EN4IjNArXguSGAKk2UPa8rC45ELESmofH6UFVo5YEWgul8NjOWdQmg8MsVxaKd/A1gz2ytikUIMHZMa2gTB574mm5485vyuQULQUbVDUecbBVAmKguG5bvb0AFJvn4SiNQKFHg8SGfKHKbyAOeBHyxKMH5cYbb4SlgHRIIrCWXPeljqT08FhDWDY5rG/Q/XCwhkea781OXb5yw33y0CN7pYXTVGJaClR/HY69ADjKQdsROGYCx/w4Hrtm9xzoyLXX3yb7Xjyq7oRrX3AuFteiZNrzYaFrHh6rgQ1KDlRE0AKshDSy7sWq6xNGo3LoeEc+c+0tsvtQsYoVlFN7ProBS8uoHyQRdsVqd6rUZLIlcvM3npa7v/UMbQnpsCEU19ReQXRBXFoNJIFB4uFxurEhyUHdjMJm4H+6/VWwsbKZNuSbD++Ta79+v0zB7efAKiq0jb+wtgEVtQ9KqNIjUio+Rzq1of2PPnVYPnXtHTKTjiEtOCnaeAGLAUIkCUIPaG8guukMuObhsZrYkOQwGOWr4LBsadRlJmvIF66/R+596KC0aD3wWkEqveA5isVBB4T7bEo8dELk09feLs8dOKHdtiQiuhUZP8Gd08ao2X5xj4fHWsGGL432AqxFoYswkA4OW6jlDxzP5SNXf0UOTuI8am/X5erooLqn22LEJd0FtjV8/fYn5Q64E0k8BoIxN4ITtzRNWhlgkCi2qetsnHSNp4PEw+N0YuOSA2ptk2IcQphoT0Ue2rxLjqak6c+p5zsfPyif/MI90sRtaQDlV+XmFC+uce26GnEvux2p7SQWnHl8d0c++fmbZapVkzSrwcuog2BABIjDxjh4d8Fj7WJDkgMbGCmsubVLkd2JxZoJzgaIg1iiWkPa8DFm0lH5wlfvlbu+tVcnhpEa+Ml9Lr+v1gKJgSSh5ALKgP8xhUsf+tgXZdf+liTBhI7qTHSyBl95+drdp/ndOhYOSlh94uFxOrEhyaEfbJysmu0ciUjiSDiiMo7VHTjWzOUTn71J2xA4CzRD7R9w4FSfsmc418LhF772hNxz/y7pcOm5ohEzrvRKLAZsp/DwON3YsORAhdORCyAFJ6rCdDUAmvuddkdHUvLbmDOwBB58ar987iv3ySyMhZaGs3YD7umiLtibxf5z+3P52Ge/LsdbcFnqDemkXCPTuR8nh7MSNI8FsdjWw+P0YWOXOLgBJUqigM+ALbsXY509Ct3W7s3JVkOuuf4ueeCJo9q12Uk5n8JmnZJoOlKXabgUH/zI52XfsbYk8QisDqQBA6MRh9Juc/WJU4O3FjxeamxIcrBP3xUCf8IWgY11lWm6FxwFmaOm53cs+IpanURGJrbAnWjIgWOZfOwzN8jRacQT1SW09d5ADJH2Tnz1ll1y78N7ZYazPqOaIBKEAzF0OjI2woHY1kbRL9reUYhby2GY0d+eMkg8XlpsXMuBy86rElLwGrgwDbbuhUS1WN2BmdkZGR3ZLMePNyUJGzIJpd/55FH58tcf0aHVXGafk6u4NuWzL7Tl81/msvRwJYK6tGCBcDRkBwEatZq0WuzDmB/mRhQHQwCdO1IRj/WFdUsOg2oak95aeJCYAlYfvbdBkvMc6CjQqqih5k/TRBpjm6Sd4P58RA4dy+W6m+6Th54+KrOwMppBTY5D76/+4u3y1PPHZSaJlDTYbsEvctMS4UCnevUbfEvAoGdZG1J9/71yKpiPPAbFp+uGRIlkIVw0EHy1MbkazmP5WLfk4OBq234ZhJ5rtBTUWsBLYOGiJQFw7UpdawKFnl2L5nqkkiVtqcdwPaQGF2KTPLVnSj53w32y57jIJNT/5m88L3c+sFcmm7HkdDfCOs7iD4YJx0FyrcnlYf25Gm4ch5NlAb8V23U4epWElJMc8E7w80Bg8WVm+c3323ssHuuaHOYrCCwwC6Faw7AXYGBNUwyS0heEres14FoQHAU53Qnl7gd2yy3f3C2P7p6W6267X/YemtRvX1i+epXZHVlhLg764Aq6SRnWydrE4CLkiLj6rqti1/lWoOB4OAr3+4XjPxQatgB/m/50i7hK8VguVmD16ZcGqoCUPgQL+bZFeCp6NxTOuWi4zbWQouBpTeeu4FgLJDaIX10OxHFickaaSSrP7Noj9zzwnMy06rA8SA7uvgJMrxvfQlreV+B7cLJ7XwoskF/3Ctxj94m5EQUpdMUGkpkwHK4zDC4Z4eIfD2wPIHlzzwg+g4VH8AxsFd33WDpWYPXplwau9qmiKDc9PmgVLjzNUgeGLe8rrYhBcTOszYvgPtdrSGTTCI+mpdkkKYza7E23FmRBKAhdbBnvQrXaQuRArMUa8WR5Hgx2//KdDnQ3+n4fRWEtlL87XQrrXbI8WPsHh78H2uu0tHx5lFjH5OAaFg1uDcluYQLmI4eqkjliKGHx9MbNeDnEieMdbE1MFmpOv4hRGPOsLZEucGs38VpZaJkaZ2jyBG446SKygwt1dbm4tYcyz73Kbm0Cp4b+58a7wm/M91j+piAHirp4/WB4azcikXhyWD6G4g1WCyAV18liQDJwoi3i3EIYTw+pOFIKI3gL9nXODBZDR6dj17TwGootCqm2xhdxaG1ZCAdb9QoT7D9nMl87xEsvC+fr1IF3WxH9LZQIcFS8ux545V91rGvLoQpXU5QFice9YUolJ+gW4DqVl6tUE9h3ZMAtaywzXS1sDFNBC6vYfAmuxeC64azGZHwd7eVwlkPG69hLcI7KEuM+V6x5bQ7mK/R9z7umMCDP6j5BBroNgP5O7r6+ZzNSsGs6IY1Wm3ufxTWG4fu22Iv7veWwohhqcuBHernse60WSsKRSkCk4xZ06pQqNb/uzW9WclGmMIj0fovZFS4r5M6tIBwpKJBuyvUiCyVgIe7OrsR9jIthU7ofYB3O9nQYSA4LoDSvVw7l+5of86V7sntVsfFeen8pvA++Yzw73wffm5IB32HMb4vY19r5VTIOX9cwWSp1uGP2CWMKiJkNv8iAvmotC8XvlNk1j+VjaMihVGYHHlMhUy2ALHxxBGIIOGahAyXFZdTycQTHAHEFIIw8TVAoE/0ilhZMl4YrfAQKpBGRNYC5QkowHV5zBZb3kxgYzoLQajhJwdW05sLxzWqAyjofTpbufPfyPpIKt/1h+C5UsUkMaiGAHOCmcSQp3zs/UCTxmEzOJiCXhobjKIeca25Eqb1/iBEH9vHOSEQOnhxWBkNNDkYMZvYTHPHIL02ZmUo3YVrO3BrKd195ufzAm66Ul12wTSZGRRo1K9h2U7Htf0s4r02EA94e7y34QhWDzQZsh0QZn4PFGA+rRRCrQQ6EIwjCvQ8H914o07MiR4425fGnd8mNN90lDz+5Sw43G1I/4zyZabFtp6akbUPe+V00i4xfL+OXz40c9JSCZOKxfAwxOSAMuxNQw9uCKixD7E/IpIHaZyRvyT/+jovl3//8j8nFZ4nwC3esbxqsiLCt1kQEP6HPEm3KbHHSzDVYTWU54H/GYAawg03sJnpftzvb/zTDAPdsDnxGd869G7oI3JvFqyRh8I3ece8e+YMP/oPsPSGShNt0TQyBNceRqmnaUleFLT4kBzfKlQShGyUGkkV/6h6LxdCSg1kLZtbrzEsQA9sgQklkJDshP/Kmy+RX/v1PyBljIqO4tY7QHENDlWYBc7WPq/FwRrdsXjSuMbfCYGnbeds307l8tUouA1DwloIDpaz50u6d757VRPU5VxrVZyWqLhd/Gai0fimsBbnpm3vl3X/6ETmRbJETbZhy9VGEwW8IN5CfNVT3rJgsZ+BvUZYJTw7Lx7p+g6xp5hUUPBZGmqCuULLRke0KF56/Xf7dz/2EnDUuMoZzYdqxNgdpo6Da+tIpFJUCFbWbAUZDYWFmNyf3WQMW0c8BwzlyobJXyYKYoyxFTP3hTieYh2o+TpYXXj1Vce9D3x+JAedcTU+LLoAbWMP7H4POf8/rz5Of+vHvF+lMyVidnwoC0TM/Svr27vT9FSRQ/e0JI53B4nFqWN/kgIJSlSpcza9WgzrOKFyseWA5fO8br5ILdsCFQBB+2zvWMCiwqIySMJQ23gqn9XCFSIo5I0gDfyxapBHQiQo9YF7Xmi+wiUFcZ5JhbJwEv4FpCkE4haO4cwT3Xa09yGJQPVhFqcLlwynyoPAUugB8H/MJOxb5/rh1+/Y+cR3PSOE+3x3jC9lFmabqpPEzhD/6Q6+XLTDrAn7BHO8rLr7tsZx2EI9Tx7p2K6iwBuM4RwhdsI2B5xA2yDqoaVoykp+QD733N+TKi+FO0M1AGJqzrSyT/ZMdSCrtDuOFzVFErw1giIM1FZUl7WuPYOqca6E1GWC2B8Lqf7vOus/A7r1UxkdiOW/bmEyM4BjxW999IFNgpSd2H0YcHFzFRtUy3ZUG4x2J2nLFJdslyhN9V45kD0xlsu/IrLTarG0Lv34Aet/EXFBR3XvU/eIOEgHP8/niOJSzttRlx+aajMO84/vlsx9pifzCb39S7n3soCTRZhgJvBu2GiLiiFQlAVoOag1YvD3EwTJSPI+9Pxv/YD1GLufVJ7DfyP2OGx3rvs1BCQK+JwsFrYRqraGfvCtAiyHOJ2Us3S9f+Yd3yzkNWA4oOBlIIw3rsvfAlHz+1sfk1kf2S6sJ9Ubhm1tIaPpaIe9HT6FEav1hTBFYf3Jdh468+qKz5aff9h1y+XkNJQ52v3Vw065DmfzW+z8h0/kI8jCidTh9bCW5pfrRFeWpgtPJzx6blff+9k+BNDkEHDW5WmEiN+w8IFdfv1MOgiBy0QkkAzA3zipKQiuJsXoPs5XBlRiph/I9/+hs+YkfeK2cv3Uc+YJSw0ogOfzm+66TG+58QlrRBO60eGBD4P2yS8mmbTvo9PjuO2IcEFI18mGhbLWvOOfnAVBydEg6ftNupeLJoYp1Tw5a0xUt1q5XwhTTFNl+cO5zgPOUbM73y3Wferdsxek6ihkXYcmjSB5+Yr+8779dJzfv3I/7G1oAncI7RXe13nKUlAVyRGblym9/hfzyv/pB+c5LJ1BgmRDoCwrx5Iu5/Iv/690ymXE5ey4rxyKNlPlVLH5Gb0nAvcX7cuCzsUv3gs1t+dKH/2/hAHA+FcmB62Vec+ez8oGP3yS7905CgQeTwyCS7If7DdxvUs2HTpDSc215y7dtlV/93/+pvPplO/R9BFEgR8Glv/X+G+SrdzwuLRlHyOK94z3ovo6IdPHBHsCuWgbF76bWJQefuXzyd2NZ4fvu5sOTw3wo3vbwwZnHHHHHkY80Rfm49OdZRlg+aMbnKGgcPEnVYJcZVZdK2UGt7STBOYo75pewWsHoKUk7HOsK72X8baYD4TBsfpzX1WzMRwxnW7vuYv2AP/brsGxGQRxQ3yL9QdIKB5/vCuOqSlAvnquGdPguXFEotqiZ8xyuDYihEzDvcyWRctsv1es9+9wyTD6GdG1fnzPhADW8F7wDKivfBzwLZMeIhYqug8qo1CCFEIRCa9D6OBDMfm4FCYmi5xFvV1KUBfZa8R5eVylcjYJUPDGUcCVi6OBqA/qczu90DYEEFTJx57GvjWFKHFZIudWauioceQfh8Gn7GP/ihNYIfWl+4CbjpC2mCbERffZTkLgI1GeaxxzX2L3H9Lk/nwxKz4nFTetK1UXTI2Fyy/fkvC82RPLY3h19f8aNexBuPmH8jKtfeN4aGk24xD/VWAmRz80t84Tn4pZfJOdz6m+BJBG7MqZaHvqbFXnHb0QYAdBawDmKvjjEj8sd3NyBGcFVvcAJNpGuEF7XiFU8FgLf6PCiazqywJUFqwoWRnJEihqFhVgVF1vd7xct4EYcCwtJxkStAieMA/GrQiBNWg3dTABaZPFPw/IfwnGF6wRKqulSqeYRU4zBQv/cSARbps3z3eeB4mrq2K/oS842lxiOF+7reYaK8B69b4DwvL0Lpk0fvxCcI6mk+D249gVJgfmIanWcJnGQtGEhMHrGQqWHKNExLxo3gT0EcrU+09M0cT/nsTgy6P0tCusjQiWh52w797k8CPemhw8VYuBjljViCT1XlMIIhZbLzJfdoqXSdRVQCyEVpzRxBwvDzBWXByvojEvpABcsEyinCKh7mgdtD8E2CqGofXnvx6D0nBiKn7p4hh7gFL13Kgr/CG2ozRIQh1HHIFDZqIjq2/eJTjTDVmMuhj132whwnt3L5AkOZ2c7DO/RawWYC74iO2+g4vJ5eKZ8roWACEgetCzoUuizF+lU4vUYjAElZT2j+OGJPiWAYVAovUELn+5Zw6V++7LTKRS4JAkUcZjdqGUgaurzuLi2WOG9ZT5c/vQsDhEGR8pBuM58hBy1BdAV4uzSalyLEaZgKOLDOR28BaXklm8MRxYef4TOLC0UqBoXxXJs0n9cPU+Zg26c7JJMJYoj4ac/2CPjwJGsoBj8EYgNRKN5528KUYJwos9UPBfiJpm4tgP3HRIGVLcDaXDrSNME8Rf7BkvVw73VYUBR6HrQJQgUGi1gBpTFQjjDD7cWBSPSqgoFCBqsulGIxj0o/kWCcdEbd/H2WwM80qQ0URTaQmHoDpEo3H2DZCHwuioJC37xHO6YJABjH/kiIbmI+N6sxl3xAlIouK2TYfnQZJEvOiT8XZg2qMVcLI5PwZvJE45TsWtZxtzCzSpyR5Lgpa61Ujwjqdx+T1hfOOJ0eZKApcT7jEzKXg+7z8Ow4r/92oEV8JPBRlAipJr5JViYrDAiDLYsoCZwP5YotAZ6lbMXphhF2vQxNKwJ7+X5QaJWBrbzCcNUC75ZRyZ6jLxoPBrO8qbKq0e94ftlUHpVcXCWhAnP4yosNLuIfYo2LCI9nuL9yIB2T2dtqUdQ8ACknSQIA/NLTTATDnDj9HsKl+xLWk0QG465fJ+2bLT1mrppZBKk3YV7x8Xv4lHi5NqzwVCalyuPQYRAMEmXbFchVUFNVhsLPTPz3J/vxeWNT2SK7/ZPBhIDOxy1WzNtQ9FnpRa0YCs0oexN7HPQOhQ/b0uc8xxJoDjGneMjkW6jtCX1sK2zcEkUJABrlJ6bDx0w5wmiByf/pYYQ/a4wj9nmUIXzafvhaj8dtbhI4X2KohC6Glp/BmioS65Mtvx5+hW0rIVPTeaDI4Z51QL5s0VVSuFxVarX+qUkl8IyKMRcPie9IOnQpghh7V+wrS6XndOQC7e05aIzOnLpDpFXbMvlEsr2VC7ekeqWwvOUC7d05OJtibzy7Ewu3NqR87e15fwzI9ncyCQGSZTT8S0fyCa2cZEnD4fhGSHJWqGoyqyXwQpZF6htGvmUTGR75fpPv1u2okDY8B+Rdh7JzicPyp9+9Ea5+bETUBQWFE7ingunaP3KempAnpHPOvLxhte9Qn7lZ75brrx0lGqjV5mbZw+L/Pi/+QOZ5joGwYiawTouoS+9qsJr4T4Juu0JXWKi553IBZtn5Ut/+4sygXM0wakwoDL5zO175c8+frvs2nNcBy9V0Z/eQu+CrgfjHJRHJQ41+5vy5teMy6/9m7fL5S/bLCM4n+M8V4fate+YHJ/uSBg3EBkHrLGlCISH59ARkYiHaTh1d8/HdiPus+uYdsWufW25+po75P5Hd0szHNNuTmvMZHi2r3AcKmENmh72bjck+Pt3BaXCyXzQgqyFxgofC/vSxFrHu8eIq5oXnmNDm2tsc0RX3j9XiOoz9MupY25xsPit4c6JtfAXjX991+YTC590hfeVgnxSivwyTSo8h3eff/ZWec0rzpJXvXyLvOrCTfKal4/Kt100Jle8HPsXm7z65eM4Py6XXwR5+YS85sIJ7J8B2YZ7JuQVF47Jy845QyZGaoi8aIRWN8djIfg3tCRUC3YpVaWZXyy0U4aF4K47pVlIFsLJrveiLBK8z5S7PO6Py52bK8XzFj0Ic8gCPoOLW7sqse9qfZp8dFeYF06npzLXcEihPVcKe1pSqQepTr/nDJAGw0JiuHH1tI0w/HgAjoOOko0RPJ/RCWGd1PbLeDgMATnM9wjz/NhFAdQy0lNAHIrrLLQqFg9HBMw3IKi/5d4dnwqgBvrnQG+BCuMUkhjUbuDSOBVxbgsxKC6imocqdCh0JZ5qvAsL7tPGPwOV0qWtAuXlOVPWAhWfX996cTu7M4t+Tdxr2wj36cgTug8WyjaF+1SLYHlwaTkckhzY+ZnhnIqGsLTLEZYe/VjHb2WQYju4n/9kYOmraOEpgoVfv6Bd/LkC5oTj/Skx/ON+iVJOBbd8s+CqcL+Q+cBw9LGXIl0FdDWzAqpepN+Lahi77p7L7pkr7nl7BWnDsVfBMcO5eCh6XMRvwnMkEBIVLApYE0bGGWp918mLcBzzga06XghrQHgcdwqiYBcon4JtCvxOCC2MACdt8R1cgbDNxd6P5cVjLvxb8VhzUKLkKuFQamULghoP4REnVHEVLp03wvkbbEBGUSZpu4FjHsuHJwePNQk1+Yt9koBNqxdpwdfjmMkWjrnPnogWTAKSBcyDLoF4LB+eHF4CDPL5hxVLeVbeoWt5Sk2mOrE89NQReXh3W3bu6mCbykMv5PLQ7kzufy6VB5/N5OHnc3n0uVzuf3JSXjyaSYIITpZqtf3DYzA8OXisQdBFqKmSP/n8MXnXH/6l/Oq7/lx+/d1/Jb/xnr/G/gfkN//gQ/Jbf/Rh+bXf/5Ce/9Xf/TN5z/s+LM/un9a2hUHQnpF5rnnMhScHjzUJNijSjWjnDdl9aEb2Hsvlmf2z8szhpuw6lsnTB5ry+N5pbNuyB8d7j2fy+AuHZDq1SVX98PbB4uHJ4XQXm54eg9ODbrdoPtcfH1STns43Uk2/Z1//QA54Xa2sLu1gTPLRbTIbjEsrHtdRjkm8WZL6GXKsGUkzGJU0bOiIyJO94Wo3cXXfoxcblhy0i45bO4QZW7R2nxYfFMW3GD/RD44Hcl10g0MsDVQ8Uz7tBDwlE5vvaD7YGIHiYInQxWx17IIRgXv3XNavjjyyD4KdxhIGusxcgkyr8ue4GrKDkmtw1iSqj9k0bq40NQ/4qMvN70aDtxyAfiWw0XkOfEWDZPGgQp5KTbUatZn15S8v344Qqkq2HIXjUvgO1Uc2x4BrMNh5m9rNs8i/rjTObSGK8rm608CXgP5n2+go3+oGBwfena7Wa3bNWcGe+/ozPWX2guOohWrwxcDFo1YTZMF4i8FCqw2uI2EKyenUOZRbT+vaC27f/SZOeV3edYQkfjjd8jqEs189VgZzS+cGAMuamtnFcRWmMIOUgueqsvpQJS72TYGWh343YrBboSpmu6sIKjzdBzfcWlFRbJ2VidfsVg7nTEzNG8NUCaBwz8r5G3baY/nYkORQhStmXCKOZi5rr0GKuBLK6aDrMxbgUnH866KSzmoRA/f7lagnDwOw1Dx0FX8ANEq2J2CP7oCu1YmTvIfzIphHrhSti9gi6FzFd8SQ4CbO9Fw4PY/FYcOTQwkWtKKQQfiJXCdcc4DnuHXiwi1G9N7ik3iuxrNZAaYoqiwo21REhjWTmfe2seVHXJYqiei3MBkn0nPP5MzyEpXiUPjzmucFZNBzDhJ+ccyepTgO+fnhBM/MDstMF5nl5wMGo3qe+5yfgf/6nsyl8Fh5zPdrrAOYci2IQgFPDQhXhHfKY2IKZoplW57nkmSLF84XYDxUFkvP5dAJQaXl9OKY4XGfroFIgliiMA7m2eKjMH7bt2csQYLSfOi7cHlBPPrsc6V8tn5xaZn0vzfukxhyLgOH/Xo91g/q2kROIwBFtdER+zZxy64yqLpefB5k16wbF97QfZ6TgqGceBDDsRJUUSCcSal1MRf1YMM1ChO/jYByJzWZkTg5KNd+4nfkfH5IlyUL97Nr78Wj0/LV23bKXQ89K5NT/GaDxUlTVgtdkZ6iW2AXiYJ8uLbA5ZddJO9461XyyvO3oJCTkKgiInsONuX/+5O/k6aMwLWGqc25Aq52X2K61bvYfajuU0FO2zfl8oe/9XM2rbkoCdzcvvMF+fRX7pT9h6a0+3A+LJQj+zaHvcOcDQjFvn5hG/uBNip0ZGQ0lrd8x0Xyo99/pZy5ZRT5gLIjzCQu3/5YR37pP79XZuMd+E0aEqQR7scvhh/Fzdpk+Bp+43o4Ke9/93+UN70mxNvjr4qreN4E4Xe+0JEPfOQWueW+p6Qlm5E2c2D548dtGI+RC7HQU20crFty4I/pYL5o+YOSMFibsP2A+/w+AgtUPUQNlp2Qv/jD/0euukRkArdYAYLSgEyOTDbl4LGmtJMMSlQUHI17pcA+fcvLprFROW/HFhmvIwHkkcTGJ5pp5/LU089LVGtoHniuzMPSCm3VdWA3ra5GXZBdDVXuKy4+W8cURJoVvAyEOTLdlhcPHpcmxzAry84FuXUhOHIg1H1i3ACflfdSGRkkRB7O3DIi20EMNS7Bjz8mO4vtF287JO/6k7+XVnwGfqcRTrooyMHW12AlUedUeBDNSH5M3veeX+4hB7ZntPHOH34hkf/60Vvl1m8+BXtnM+7jVbNCNHdcsJLAO7fp6R5DSw4sgCQIflqNYWnO11A1BtmM/IsfuUp+/effKOO4hbWlfkQF97BG4+w/wsXuFJPHyy0y1A0SUUwlxDELJpWSsXOdAl02HYnYtzEtTX5cmyi+b7N8IL7CwOo+D2mJNMSGUn6ejgqi37ZkOOSxJKe5WIggXDoMolKEdecJlwclc7ofVFoEgPMhRzoi7/mzG+RLtz5cfIKfa2HEuIzfiytJMUKQA9fJUMtBjsj7f/+X5Xsuj5Uc+NvSUqLl8PDzHfnzj9JyeEKawSYjByUBCoiLFQePPTl0sY7fgvthB/+YJAjWPoR+ECaMJU1QI6Wx3HrHffLc3jYKoDZBUl+UICLUMHX4w3UUNC5ySuGyYxQuQUbTmx/nX6qMII0xMEIdW7o0XMKMSsncs39e7YSWLW0WJvwWtsgowjdYOw6I71SF97r7+QxcRo154Lka2wSSloRcuh3Wk5n0OQisuI95Le7V+1FDV6WG8AMFbzbmdd5T3NfAeRUXF4TXudSbtocgb0pQtBywf/CYyD33PQIralw6KchTCcsWgdG3xWOOkgTZ8Lx9GcvYlPyDqBBfgLghCG/tEviHsEYIEN6nZAX3rUJaHnwjQww1X4suMhYkWOwoaCNy4Fhb3v+hT8mugyJtFIgWilIL5YXX9UtKrFXmAYIsA1pku3Fw0ZIMFoMVVVZauBZHeo7N9wxXFGO1gHh8KuLSKdNzAhifKqhUZZogTzw3lZLvgYOQBoEWzikJzYNCCTV1kJx+oMYppp63PPEbFR3adkGM36ImTRwfQ7Dff9/HZP9kJlMthKyTMpFfmFpq3DgzBOB+9xjxu4XjnLIzP7QIdJ+WgbYnQfRcue8Xne3F0LwNljuKFjwUEJqcWjhQMLhFvYGSgQIIEzQJRuSunbvlt//4b+Xux47JCZSmGfjVU2kk0/BpW1CSJu6h0LpA2dRtUwVEsmQp42BbP9OhX90MkR6E+y2QgqaBa9N4Hr0P+e5AeP5UZBZpVIXpcmvXLQ8uT028jxmd2FTHcR35wD7eRRP5mAF7NPHyyvwvRiLEGat7ALuk2No53UJcnuwd4N0j3HGw065DIr/5ux+Xbz6yR+L6Npg6DYQEqPipfeCXVoH93sUW17Trt/BZikv47Y2A1EXS4u7EoMRipgf2GcgThMM6bnMYDDU5rXzoD68LnaoFgR8/RaFCSeKn0oJ8FsWzKVvHI3nD618nb379P5JLX7ZDtm6G60DbG3CFj5WS1rJFvFq8lvDWNA5sKSzcrKi00EIhaKwwTrZJsKJjNVmUc02X13nPUlC+D/6zfY0L5901bni9m2YRTvNyEgx6F/qsOM/4q+rm0qABoZYApIPj6UmRp589JnfcebfccfcDcmK2JrPZmAS1zTLT7sCSouLD9eOHd5FbeIBdpdfeirwJt+24/Nl7/oO86VUNGWVYTZ+WWS47d6fy5x+5SW755hMgok1s17Rnp8VAa4KRefRgaMih2rWpykQy0BKOHx/7/Ep1DbUhC5h6tdiqEZ3DoAVZsO+9EbZhTs/AT4XPX2mgV6VlQQK4RuFSFyR1imig+Vs0BcLXH603UCOiGCMhHUHJNghszQKCYkBLzRw+ObShroLedKso3hkeNkPahCNSrtXKaGKky2OHrvlegFmdD0yXsboJVkrW1fB8j0i7DeXm7MoQFl0QxdKhvxWOSSeLQaA1Sz/gcGqOlYC7hXgiWFraeApoOwmInuTABsk3v7qu5BDiIfhsHFGx84VMPvD3N8nN33wcltgmW4Ua8ahFCbg5GdVn7aW1jYehJQfCfujyB2bB1CG6bIgqqmcqPlWUDWLaDIZC6MhAXwwVEzvVmmWpMxxtmfteONLpgrUY8mNKVITHfSzGNiNxaXDJdB+jm5cyT2VemFb5jEutVavP5uLokoP7vfi0+q7ZmGCNjIQSFAiLDckZXAm3EgWXyieUNHFWZ2EqwbdkU31G3vu7v2C9FSQ7pEHyTRDnzucT+cCHb5TbYDlwTQiJa7paNb/VTbiFadl4rXld4m88TBhKcnCYO30XRQyFgOShjWOAEgZtVEBPuXhAHl2SQc3UqyBLLTSlIjrMVSDGbeFIEgZuebQ0cujNewn3zkqiKFBRUmK++0+GQeRA2L6laWGMIJxC8r2nnbZEdbP6sqSjPQ76dW3cR4uPw69JljpuA3mtBR1wxAH54P//G3ArRmUUvxnD0n1gO9PO3bPywY/eIHfc/4S08nH9fZMOyQflAYnzmJ/c0/YHpODyspGxIcmBymB9AQbeQ2VglyiLnnZvVcmBZ4vgPTX6MuDi7ke3ZiUGKO3SYM9WzbcpZXHcn04VS05zACrp9BJEkUaRFt9NCHeg2ZqWkZEGyIHdnIGMj8SyfduYjMQ4Dlv2THiQKK/jd+1ITY7Jf/qP75QrLxqVmva2wHVDEPbCPL63KZ+45i554PFdIIc6T+I6nIoaO10D7a06NtmSIydmkQGzYnh9I2PdkkO31uvDwuTgrltfvlN457uyMBg58F5QAk8jHYajK+GIpftR2iWhVIB+zB/t4Gc9dThyKDHf+zMsN70qXLq9cfJNV6Hvuj+PbGPAT8iwOZT9gnPOkB/5oavk1Rdvl9F4RqIkhxeYSi2q42fB7xnOymsvu0C2bwokTtmuhEjx43XwYo/PhvL0nuNQ/im8aK4zFUkHcZI4mlkkM+mofOJz18lDTx9APkAenhyGjxwGDYgqUdxT3OvIwYHEwEZChbZJGKi0jNcRy1LJwWrr3kLXn4c5NXX3Obkd/MwnR0kOlocBcOmuSHpV9D1PX5y8OigVtjewZyLL2hKkiX65avNYS37sbVfJv/rJK+XsMQ5IswFqfIdK4PwHkrC2JnvQPGc7kpEAhdc1LMIkEOuqDuT6u/bIH/3Xq+Xg7Cbkx5MDsSGenm0Krl2BUBJAQemE1ljlxIjBlMLmIwwS/EewpQitBRuRV35tOusRG+PfIyzYXM+gL67FC+OoSoJ4KUX8ml5/mEHxLEJcvH1x6ufv8b4pOhBsoFhvBLc5LAN+en+qGcqddz0i37r/eR1ijmDao+PAodLshWD8Oc7ngXVru6XqGZTD0IOoo4TBtTQyyAsHRT75uVthVZh76WEY+jdRdTMcrMAYQaSc9Ygt6ECvqXla3MLCRHHHJfjaliInQz8RkUjcFpuBcZ6KIAbcTynj5T5RpjOoN8UwKM6TSQWVeG30qbluJvb+3Xm7FlovBQKo4JwuLJvVZM+eE3LTTffJ7j2T+G0ZIxQeAh0HynSr5GZjXSLtUmVsfN5UQIzYm8a/f/jczfLwkwclCSeQob68b2BsyDehNYgTlBVHAnrNStmqwKVTlZNhMWEXg2q8VVlRUNGcFBiUphMH7lcVm8WUrhx7a1oyKt94eLfcdu9uOT4Dkqe6q58Ad2IOixddnZVizqnakXDsREOaCH7zPfvkutsfkulOpBZK2RjpEU1c/o53FfvrCqwDBv31g8puy87zB+d1C8dypGWqOIsQKi6shbI/C4H/Gld5ZvGynL9B8S1FFvqbL1z1/KnKfH+DwvaKWhT4cfiL8I98HQjdBLoisaRpJkcOH5OLXna2XHD2uJIJ7A393QhLh02OLkaD/t4I0+mkcClj2Tcp8qcfukae29+WLB6XlNPB2QLad99GhadIjzUJJW/YCupUaPuPge0JTdTsT+05LF+68T7ZtZ8uQqDtDfxLkwR32D7bmbK8ja0tRUcXk+MYwrguTUT53z91ozzx3CGZRaScsRtxrTqPLjw5eKxpcMATCynFuRopJ3TlDbn1nsfkngd3y2QblkYxi9VZD9x3bR28R7ekG96P03fff0C+Dndisonw8ajE9RFpk1i8wdCFJwePNQm6CuUKVthqO4AJyYFuwbF2LB///E3y9N4Z4czTmRY7Jg3U8fJuWhd0OzhaUuTFY7lc/fmb5cUjuYS1zUinIdPNptTr8y+HtxHhycFjjaPsddDiCpJgIyPUWnLU+M++eEI+86XbZf8xGACNhvZABGy0KOAsAVoSrnfimhvukwee3CPtcAxWRCRpmkqjUZMkNffDw+DJwWNNozTzTWl1MJeuo2c9FW2pyY13PCL37TwA5cZ1bVA0uM8asnGSRb2dZXLvw4fk2lsflmMJyCDk5KuO1GLcGHDciSeGKjw5eKxZsAGR4xw45ZrrQLL25zlOX+eWHMHVo45OZfKxT18vz7yY6aAqWgjWG8XGTPZacHGZUPYcS+XLt9wvT+2fEi7C185yqdXgonQSXfmKU/o9Snhy8FjT0JGUEkOsMZEWhM6S5biGgMQBicfksV0H5eov3SbHWiAHskMFJJjJpsh1dz0hdzy0W6ZkE8iiASsj1rYIDtPW0ZKlmeIBeHLwWHOwGr8w8SsNkex9KMZLSg0Kr1ZEwGX/uKxfTb749bvltvtftOX9SBwcHg+roZmF8ugzx+T6Ox6W/Uemtb2iC8RP74ML6Zi1UZz38OTgsdbRV0SDhKaAztLkZCxnPXCdzSOtmnz001+VPYdb2itBi4HtEgcON+W62+6Th549DMIYtWhwnaIoCGjhSXsbD/5teKwKaKEvRxyqNXnAtesA1vR50MC/umSp9V7ANxCu6PD4cwflE1+8XY7D8Gji/NG2yN2P7JXb7n1cZlocLBWUpKDF34lL16uEg38THmsWHP5My4BbXVezAM9wWTm2RQRhXRsmQ50vMSbNdFS+etuDcut9+2UGYZ/ZNyPX3PiAPH+oBSuCXwLhh3EQXoWuixMDJ2wNQj95zSfDBE8OHmsSTtGKJkdthFR+gOmvjZS4nuIcuyvrtRHpdLAfRtLJazq46epr75EHnxa5/van5VuP7pMM7gSJhnCFnnFonDqD08SjxNAsE+extlBVNJuOXaIc+WguQhUVAwFKjHBKBnbMBkie5T1qPRQ3c+6ENlSGcDHyFFZGKqM1kSteeYHs3ntIDhye1VGVtDDYTsGp28yBxuvy2dPe0F9nlvk1WB5KFMQFDFO7xfA8icfaAxWvWhs7xamc54pP/JqXfhaXi8RiS5OfSk4ycMKuRi5Hz4VlOQOTH67QLk3Qgs6/ZLsDQOuA7sZsO5T7H90jB4809ZhpWwMmwmk+rAEyzOCapLgfTEEh4TAtKj8ncNkkLnZ4Wt66YBx5rG0Y+kHf6rUhgScHj1WB8+sNxYzIirhFdajMWuPjoLr8Hs/zOI+K8Qwggk7CGZZQQhCLdnciXoou4gLpQpUflkJqX+rkcvYMQyGp6PcqivxpHpwU8SQ6UAJ5Rh45PRyX9LiEqQ2fQ1ElwCGCJweP1YPWrq6IldaCO89a2tX4Fg4SQKFxnlOrdSEXKGCaJ0oKtRprftbwuFKQCV0KnZLNLk5das+2+hkxSIZrVdElA2EFgGosfLGl8Dw/tweu0nQ4EptpchanBA1t/CTpKPAsbAuJ+AHgFNZH9zmHB77NwWNV4NoJtAZmhc0aXwEFV2JAsaNCwTJQylDigAOQ17Bris/1J3lOhzKRCPglcB7jVpr+RjBWfG0VqIKAKorard27qFxjOpWFhDkuIoga2EaSJIHEUSStBOnxAziwJqIw1o/eFKERgblAHJ7NXA4bPDl4rApKcqCumpIbQA4ZvzPBYseGPeslUJMfiLikPK5p6LAtjVoi4yORjDQyacSJxIiLX6mKiwlWVP7yMwPFDM4FFFWHSeOeHG4J73UTtdI0gdsCMshGpdWOpTmbSbOFvNRxDF7LEI5fSus2tIKA+Bk+nbuRsRWkbDgdFnhy8FgV9CiKmvklOXDwkpEDdQzmOR1+nA9BDPzIcR3mfQ0kcNb2Ubnk5TvkdVdcLK++7OVyzlmbZesZAsIAiVTip3q7Q8ZEY2GxisrxVbMtkX0HUnns8d3y+BPPySNP7ZEX9p2Q4004EOGopHQxkF8SAfPLBlESQwxRUoIYSQ0HPDl4rApORg52DEWDsilo4sOEHwk7srneke+4bIf8s3/yRrnyOy+UCX6jArcxSuclxDhwBbdotejCpXQqYHyF0SIdtVgC4VL2XDfmiV1T8sXr7pU7v7VH9hzJZQZ57fBbGgU5kAjIa7Qeis7RoSKHdbvArMfaBtsZqlslBexbwx0ViZpFVcS+1sBwFXIQw+isfN9Vl8l/+PmfkG9/1RbZMmIfr4kZBpqsYyMRBWPRkZPYMi6qpyXl6vVTk4Bxgh0CxosIYuwznTounn1mQy679GL9JN++/fvkxNQJPA+cGjBCwrkdEdwJZF/jgTDt7uMOATw5eKwKuqTAbU4VNhWiEpIUoF68YLUvCKKWpzJaz+QH3/xK+bf/61vl4rMCkAKUFOf5EX12WQb86naAGpuxLFMLHZUwO26XbR0crsA2jBjWDt2dTaOBXHjxDqk1Innq2edlppnA2smlmbRBDhw/wdvxD4SiPSkW1VCAv5iHxyrAzOzqaEg24lmRs2vajYj/VMYgm5ErXnGu/PO3f7+ctz1Q0qCVQBM+5YpNXFQ2rEsTx7NQwlmooZNWn1SvzSecd6H7IJvueey3wkCngLsvX0XI4xmwXt763VfIm698lYxHqYQghvG4LgGyz54KukTumYYJvs3BY5VgvQHW9sDW/FhrVhtTUA5m4keFKKNyXH7p539S/tkPXiI7oIw1fiOTSkpywHamncuLB4/LoWNNmZyeQpRlLd3v55+sMdIF1xWl2NaBbQQrYLxekwvOPVO2TcTSCDnKwroqszBWUrrn8Ul595/+gzx3YFY64YRkCQhCu0JpZXRzU2zXPzw5eKwS6DqAAGAt6Pcu+8iB4AAo9lDU8kQu3JHLf/6lfymvv2Jc+ClbdhO22omktRF55sWmXH0NvzGxX6Zn2XCYItqSAUhCTjnpbrCRcD4wrOspcWC3Zq1WkzGQw47No/I9r79cfvh7XyOb6rk0ghT5p2MTyBFk/ffe+2m5/cEX5NhMQ5J8VFeTYm9omoBIOHrKk4OHx8kAc6AYE8C5DdZMCPAcCIKToEgcI6ia46Qp33flOfKLP/cjculZNZjsXL8p0BWcDs4E8vvv+5jcvXO/TKGm5tqPJACON2CMWaHodo571oswHxivAwlFrRsIUQOZNZC3i3YE8i9//B/LO952pYyCODimkuMcYK/If7/mXvm7q2+RA1N1RDYhKQdtIR7OESE5LJT2esPw0JzH2gPbGLSdYS5UkVDrFuu3yNYt4zLWCKSBWjgGcajSQpGPTrblGw88JpOdSGbShsxAGTnmgFOwsxz+R5/keR3KPL9wQZh2FksS2D63WdiA61LXlaxn8kh2H5qSb+58Xg5PGuFwwhefgs2q5599rqQdujQNCeMR7fbsgECC7sjJ4YEnB4/TA7UYzJJwhEECIKh8EdyEOq5TAdMU52HKs03w2PGmtFIocd6QnI2AcUM60EiuAMXP8tNdodgHcDnvYWHJMqTAL3bj3pRxFMI49DuckFZWl2PToUxOWf5S9pKAAJhr2h2jo+PIeyCz7VbP8OthgycHj1UHTW22A7gvmrtznDPBORE02+tRhGPUyNC1oFgintwRRDYtutvGAFNDezeKeAjW7q4RkucXEg6fru474bHerxPBQskipAnhNbUcGA5XahHHOLCbgud4E3tbhpMgPDl4rBJYtJzgf6F8jigIa0SkNVFYFAD3eiZDaZei9VoQ3ON9Si6QLingHMUGRi1ROB4DVk0Ogui2kQB0IgiXE93HQyhh8HmYdvFMw4TyDXh4vIRwDYsE95xCerx08OTg8ZJAuxQLcbVutTDiSrF3anDtFx4rB08OHmsCOr8B4rF24MnB4yWDay/wWJvw5ODh4TEQnhw81h3m6xlwPSKnG8PYU0F4cvB4yeCUmUOflwrXpXk6iWFQWqc7D6cDnhw81h2WQyYepw5PDh7rGm50pBOPlYMnB481Ad+NufbgycFjzcCWgDu10ZH9loIjF29BrBw8OXh4eAyEJwePVYKbUGXSX5v3dv9xshOXlePn6Th02hZ5cPfMaYDMuHwbwuN8r1TTXBzcUG5dIr9/pSj8VWPsf5buvUMGTw4epw0pShsVix+BYbefEUQ545LrPXCvR/cCrrPAHc7G5A2mpjoTEpKFJlx0ZblgFPoNCl1vosijXiFBcI1sS909B8EsDdNn96sYzqfyWPNQ3erW9KcOd59NneYiLKbMPK/rRRQ1v34wdxHCuJzl4bb9FkIVzIFym2Jxz7Be4MnB4yVB6QIQxXZQDezC6dbgBhtZrQ1SgNSg3/w0HfeXArNEuFYkXBsVpllGZkvAFMJ0eRKgO7MQiaxneHLwWCV0VakQUyIqE+pqPTaY0ptDYeHc1pGAKiNE2wJyuBm4buEBkAaJRuOGQjtF5XYpwriYR4e0aP+oouQMy7OlbzJMcL+Gh8dpARvunCJ2USiVcxbYlWmOgimiWQgoqsU6kUFQg9/Pj90gfBEXFTThfmhLyrk2iVMVAxQ9jLrHZR6ZK1sbKijaSyiuEVLDV1avGhZ4cvA4LdDeBPj2VrsaGVRr6F6UYZz1QDC4OzbCsP1qmBJWqy9KlIDqhZCIejNoOUJIpMcFZ5kHPk8HOz1kNyTgW/HwWDG4mrxfnMVAKFHYbg/mkIUeQyX7zHUqJ7sydUVoiIZRVBR9Qbh7+gVWQRZLlMaI1yyEErxOWNxs26CdQ6uBweYnuvULTw4epwWmyNhhzwKXnceWDYjUKbYldFITRQb/HSpHq73eoDnfljxrSsSPUwYJznOLENrGAKUtxBo5Tw6t+dl+kUK5i94NlbQt9SyRet6UrWOJjPHz3gqLl60PCcdiOHeCBMX7dF9PDRU8OXicBlgNy4/O6odnSQzFXwiC4PVmsymtxBr/zOdHzY3NxKa6nHf2FhmJEwSbgWLPShSSHNpQyjbC8NN6/GI30qASgzy45P18EkO5WeNzefsw4DL3/CYmCIff5gQ5xNmsnLU5kssvORMEYURCkB4oJ2amdDFcWkJcsj5P+XUukJ2aRcOlTp4cPFYZVNhC3D73uOQ8SEIb9aBs+w8dltlmAjVFDQ09S2EdsPvw7IlIfuGdPymXnhPKeH5I6nJEaukRaaSTXallJjGknk6DALA/j0QVqQezIKcpnJ+WRjgj4/Vp2TIyJW+86iJ56/d9u4zUkF0QFWmH+eogq88+v1+aSaaf83PfuLD2ieFTJf+tTI8VRbVdwVDU6IC19xekAJOeNXgdVXMcdWQiOiy/92s/K9/z7WfJKCwCeP24al/YnoZx8MzeKbl351Py3J5DMjXd0i9XMQ1tz3DxKrhFmvOUaio7P8WXphz8VAaq12PZunlErnrdZXLFK3bIeVv47UxYB4iLpAAbRY4kgfyn//Lf5J77j0gzn4CLgRvjBrwTWDlIls/Z206xvuHJwWNFMZccqDSsd4tzWsPSrQiUILKkIzXU0COwCH76x94i7/yfrpLzoZgx/HmuSE2PnrU0421h20ZppU6zziZceg5sn1xq4yDdmBjZq2Fby1twG5BLmDHtKJQm8vG1b+yR9/7FZ+TA8RqeaJN0QDD88hU/rccvbZOQhokcHN16eKwa2K6gjYBUnMK9YMOetvTH/DZlAOUblWtvuFee2jspswjC2phannYSVdoIjFDLOrI5zmRrjZKrbIdFb8L9XHbUU9leS+VMXOuX7V1B+J5jkzMQ9xiSbSCP9l1w2AJRBMshkCNTIl+94RtyeCqXdgp7ApZLVHy2j+0cfCaT4YEnB4/VA62EQb44lI9jHhI2BqLmzaNYsnhE9h9vyXv+5O/lW48eBVlYM2NQiyVJ+MHaFBYGLQmQitoTZS8B51TEOEJMeg56rl2N/aLncV2PuZ0j/CQeP+bLgVEgLVgGSZbLwRMif/Xhr8pt9z4mLX7NOxpV6uDHdA2l6zRMiCYuf8e7in0Pj2XD6YttoGTdfV4z5eU/fg9Tx0EG8P8zkAWUMIJ/MTs9Iw8++Ihs336OTGzZIkGdYWNhnwLjdjEa5fCExqi79i9HOCgudgcJkes9UGecsJ4RA1U8xXGC8x3EMZNE8ty+lvztJ66X6297BIQ1BsJo6Md92dnKfMf0Q5g7NrDifsvfcMCTg8eKwikgwdodZwp1gdLqHtSHSgk/XRUJQUL4HKZcVOqGTM3kcs/dD8rh402pj2+XTliTEEoYQSxOUkVpPzBNZ9TzuJKFOXBhbIu46NroedgkiGgK5sqhyVR2HZyVO+7fJ3/zyZvl9m88LTPpKAhjRDIQlT4JiI7tDLbPmItnWzD19QXfIOnxksIaFEuTXPsoOGAqbcK8b8o5Z47LFa9+ubzmlS+THVvHZbwRSA1kwd4Mh5KQynhOFc5ySNJE2h2RYyeasmvPi/LE08/LU7sOy+ETyEttTNqZzeXgF7hdd6wD21Rcw+gwre3gycFjDcCUrdrzoK4BFDbIO1KLUEvnLexnMlpvyEgES0JbCYwYAlgeGRsF2Zbh4jiJkvZMmgJIDkknkbTJ1ahoHdB1qMOaqEkWwbqAG8R7bMEZAGmxkdUmhBk5cLSmJwcPjxVFWRNzHQV1E1JTXDoAEVRVa2s3MhEuSSQ1C8/zHFKtW8bDMQ6npqCMi20dYWThmSZjVnLIIkmRERID88Gh2ow7LMhBuyyRTne2KNK2SWXDA08OHi8JSjOc/wulUgWDrhXX8iKQzsDANTs2ZbTRiQxLUrCuxFzgFwCcs7GQ5aCkQ0ugIBt3jkhBPEyDlgMtEsabZbRK2PUKInGWA8JwkpaRQx35tkVi7HmGA/O/QQ+PVYXVxD21LWtiKHaUwr9vmwWgk7NYu0PpOKxAzXoqIoiAQkJQC0CXejOYiT9YLKxZDIQjB27TAHGETWSjie0M4m4Z4Sgx4OYuTG2Y9wS7zqUZNnhy8FhDYHE0YaNj1X/P2N2Zwn0gGagyFlKQjIO6AAsUa7YdkCS4GlWSm6XSJQ5aEqj9JWzj6izE2jmiAARFTtIYLG6mQQuHlkvqZocOGeZ/ix4eLyF6a+pSqbtuRB9BMHR3sVm6DScRorpP6NgLtVRgwYhr9AQJgAW6bQtzJlkxP5WG0CGCJwePlwRUNidWDPuLoim59hJAdAw1lbdQaLoX3CKUEgPdDrokrp3CavX5xcVXFYs3KoXkUMljdxYm980bKTB8VgPR/4t4eKwRlKa6KnO31rZl3IKMYufYMKjXxG0d2SxO2AhZFbNHTPWViEhAHIOhW1oqvTJs4Fvx8FhTIClQ6EKoG6HnKBxPMFepS1kJlHGRECRK4W5w7UtzXwy2rVo/jjCGCSv1Rj08VhS6BBy/H1EQRamYRhRV5NBKSlbMsNLl25YglkYhlTYNbaTElvmxc2VeDMOpRp4cPNYk2HPAtRTYxdizzmMhPYo8R5aGQa6BIyJrqyBRMYVyuLTB0nRu0LDAk4PHmoTredBxDrrl4CYnpd8PpuiKTqdaloJaeja2AqqBdCmODLi1LkwTPadSto8MEzw5eKw59PryJvMVVbeQjIMqtcLdsxgpwTRpSWj6xfFC+RhGbJwn9VhXsG7F+aUHVFonKwztiSgsCdcr4WTY4cnBYx2CxbZXXM1eCs4uQaqYG+d88ZbXhwnD9TQeHh4rBJH/AR3ZsS167jwBAAAAAElFTkSuQmCC;" vertex="1" parent="1">
          <mxGeometry x="428.58" y="404.4" width="53.6" height="43" as="geometry" />
        </mxCell>
        <mxCell id="HRoIjgGC-OPo9JwMi8IM-16" style="edgeStyle=orthogonalEdgeStyle;rounded=0;orthogonalLoop=1;jettySize=auto;html=1;" edge="1" parent="1" source="HRoIjgGC-OPo9JwMi8IM-13" target="BUz5Cs6KhjB94nJ8huxt-23">
          <mxGeometry relative="1" as="geometry" />
        </mxCell>
        <mxCell id="HRoIjgGC-OPo9JwMi8IM-17" value="Completed&amp;nbsp; Task" style="edgeLabel;html=1;align=center;verticalAlign=middle;resizable=0;points=[];" vertex="1" connectable="0" parent="HRoIjgGC-OPo9JwMi8IM-16">
          <mxGeometry x="-0.6176" y="1" relative="1" as="geometry">
            <mxPoint x="-100" y="-1" as="offset" />
          </mxGeometry>
        </mxCell>
        <mxCell id="HRoIjgGC-OPo9JwMi8IM-13" value="Human in the loop&#xa;Action Center tasks" style="shape=image;verticalLabelPosition=bottom;labelBackgroundColor=default;verticalAlign=top;aspect=fixed;imageAspect=0;image=https://cdn2.iconfinder.com/data/icons/squareplex/512/tasks.png;" vertex="1" parent="1">
          <mxGeometry x="763.44" y="647.5" width="95.5" height="95.5" as="geometry" />
        </mxCell>
      </root>
    </mxGraphModel>
  </diagram>
</mxfile>
